<svg width="642" height="572" viewBox="0 0 642 572" fill="none" xmlns="http://www.w3.org/2000/svg">
<path opacity="0.4" d="M543.403 135.427C567.594 123.466 574.867 88.8162 559.647 58.0335C544.427 27.2508 512.479 11.9923 488.288 23.9527C464.098 35.9131 456.825 70.5632 472.045 101.346C487.264 132.129 519.213 147.387 543.403 135.427Z" fill="#A8C4E5"/>
<path d="M504.254 19.8344C490.686 14.7561 477.597 15.5159 466.867 20.874L466.86 20.8674L447.081 30.2042L450.079 35.8689C445.621 42.56 442.575 50.7838 441.409 60.2339C437.244 93.9757 458.63 130.59 489.173 142.019C495.644 144.438 501.995 145.525 508.046 145.425L522.981 142.552C524.527 141.953 526.034 141.266 527.493 140.486L527.746 140.367L527.74 140.353C540.549 133.436 549.772 119.807 552.025 101.606C556.183 67.878 534.797 31.2638 504.254 19.8344Z" fill="#A8C4E5"/>
<path d="M513.418 143.601C539.509 130.701 547.352 93.3263 530.935 60.1219C514.518 26.9175 480.058 10.4575 453.967 23.3576C427.876 36.2576 420.034 73.6326 436.451 106.837C452.868 140.041 487.327 156.501 513.418 143.601Z" fill="#B4D2F5"/>
<path d="M507.561 131.755C528.512 121.397 534.81 91.386 521.627 64.7242C508.445 38.0623 480.775 24.8459 459.824 35.2043C438.874 45.5628 432.576 75.5738 445.758 102.236C458.94 128.897 486.611 142.114 507.561 131.755Z" fill="white"/>
<path opacity="0.44" d="M486.96 131.016C462.435 121.84 445.261 92.4363 448.607 65.3455C450.746 48.0448 460.729 35.8889 474.058 31.737C456.244 32.2901 441.922 45.7589 439.31 66.8917C435.964 93.9824 453.138 123.386 477.663 132.563C486.534 135.881 495.144 136.095 502.688 133.735C497.663 133.902 492.358 133.036 486.96 131.016Z" fill="#A8C4E5"/>
<path d="M488.973 41.7602C488.933 44.0195 487.347 46.1054 485.427 46.4253C483.508 46.7452 481.982 45.1724 482.022 42.9198C482.062 40.6606 483.648 38.5747 485.567 38.2548C487.487 37.9282 489.013 39.501 488.973 41.7602Z" fill="#8CA4BF"/>
<path d="M485.181 125.565C485.141 127.824 483.555 129.91 481.636 130.23C479.716 130.55 478.19 128.977 478.23 126.725C478.27 124.465 479.856 122.379 481.776 122.059C483.695 121.74 485.221 123.306 485.181 125.565Z" fill="#8CA4BF"/>
<path d="M518.383 101.5C516.29 100.753 515.377 98.7541 516.337 97.028C517.297 95.3019 519.769 94.5089 521.855 95.2553C523.948 96.0017 524.861 98.001 523.901 99.7271C522.941 101.453 520.469 102.246 518.383 101.5Z" fill="#8CA4BF"/>
<path d="M443.322 74.8556C441.229 74.1092 440.316 72.1099 441.276 70.3838C442.236 68.6577 444.708 67.8647 446.794 68.6111C448.887 69.3575 449.8 71.3568 448.84 73.0829C447.88 74.8023 445.415 75.5953 443.322 74.8556Z" fill="#8CA4BF"/>
<path d="M501.748 114.209L481.749 85.5319C481.602 85.3187 481.669 85.0188 481.902 84.8655C482.135 84.7122 482.442 84.7589 482.588 84.9655L502.588 113.642C502.735 113.856 502.668 114.155 502.435 114.309C502.208 114.462 501.895 114.415 501.748 114.209Z" fill="#A8C4E5"/>
<path d="M483.628 85.8185L455.724 105.545C454.611 106.331 453.192 106.218 452.572 105.298C451.946 104.379 452.346 102.979 453.452 102.193L481.356 82.4663C482.469 81.6799 483.888 81.7932 484.508 82.7129C485.134 83.6392 484.741 85.0321 483.628 85.8185Z" fill="#8CA4BF"/>
<path d="M485.707 62.4332L484.641 83.1461C484.581 84.3457 483.488 85.4653 482.215 85.6386C480.942 85.8119 479.949 84.9721 480.016 83.7725L481.082 63.0596C481.142 61.86 482.235 60.7404 483.508 60.5672C484.774 60.3939 485.767 61.2336 485.707 62.4332Z" fill="#DB9D39"/>
<path d="M486.374 84.5256C486.334 86.7782 484.428 88.2643 482.109 87.8511C479.79 87.4313 477.943 85.272 477.977 83.0194C478.017 80.7669 479.923 79.2807 482.242 79.6939C484.568 80.1138 486.414 82.273 486.374 84.5256Z" fill="#DB9D39"/>
<path d="M484.048 83.8792C484.028 84.8988 483.168 85.5653 482.122 85.3787C481.076 85.1921 480.243 84.2124 480.256 83.1994C480.276 82.1798 481.136 81.5133 482.182 81.6999C483.228 81.8865 484.061 82.8662 484.048 83.8792Z" fill="white"/>
<path d="M574.99 508.721L188.242 373.62L216.093 79.6273L603.78 204.778L574.99 508.721Z" fill="#A8C4E5"/>
<path d="M579.982 218.666L250.001 104.525L248.422 120.327L248.388 120.313L225.103 353.714L555.084 467.855L556.663 452.053L556.696 452.067L579.982 218.666Z" fill="#DCDCE0"/>
<path d="M572.211 223.838L242.224 109.697L240.651 125.498L240.618 125.485L217.332 358.885L547.313 473.026L548.892 457.225L548.926 457.238L572.211 223.838Z" fill="#E8E8EF"/>
<path d="M562.594 223.878L232.607 109.737L231.034 125.538L231.001 125.525L207.716 358.925L537.696 473.066L539.276 457.265L539.309 457.278L562.594 223.878Z" fill="white"/>
<path d="M287.153 146.995C290.07 143.557 288.985 137.841 284.728 134.228C280.471 130.615 274.655 130.473 271.737 133.91C268.82 137.348 269.905 143.063 274.162 146.677C278.419 150.29 284.235 150.432 287.153 146.995Z" fill="#A8C4E5"/>
<path d="M527.007 221.625C528.013 226.61 524.721 230.602 519.656 230.536C514.591 230.469 509.673 226.37 508.673 221.379C507.667 216.394 510.959 212.402 516.024 212.469C521.089 212.542 526.007 216.64 527.007 221.625Z" fill="#A8C4E5"/>
<path d="M238.158 173.669L542.188 275.534" stroke="#A8C4E5" stroke-width="1.6658" stroke-miterlimit="10"/>
<path d="M233.933 211.249L537.956 313.114" stroke="#A8C4E5" stroke-width="1.6658" stroke-miterlimit="10"/>
<path d="M229.701 248.829L533.724 350.695" stroke="#A8C4E5" stroke-width="1.6658" stroke-miterlimit="10"/>
<path d="M225.469 286.41L529.499 388.275" stroke="#A8C4E5" stroke-width="1.6658" stroke-miterlimit="10"/>
<path d="M221.238 323.99L525.267 425.862" stroke="#A8C4E5" stroke-width="1.6658" stroke-miterlimit="10"/>
<path d="M283.89 227.99L243.07 214.308L247.296 176.727L288.122 190.409L283.89 227.99Z" stroke="#A8C4E5" stroke-width="1.6658" stroke-miterlimit="10"/>
<path d="M324.709 241.665L283.89 227.99L288.122 190.409L328.941 204.085L324.709 241.665Z" stroke="#A8C4E5" stroke-width="1.6658" stroke-miterlimit="10"/>
<path d="M365.535 255.341L324.709 241.665L328.941 204.085L369.767 217.76L365.535 255.341Z" stroke="#A8C4E5" stroke-width="1.6658" stroke-miterlimit="10"/>
<path d="M406.354 269.023L365.535 255.341L369.767 217.76L410.586 231.442L406.354 269.023Z" stroke="#A8C4E5" stroke-width="1.6658" stroke-miterlimit="10"/>
<path d="M447.174 282.698L406.354 269.023L410.586 231.442L451.406 245.117L447.174 282.698Z" stroke="#A8C4E5" stroke-width="1.6658" stroke-miterlimit="10"/>
<path d="M488 296.38L447.174 282.698L451.406 245.117L492.232 258.799L488 296.38Z" stroke="#A8C4E5" stroke-width="1.6658" stroke-miterlimit="10"/>
<path d="M528.819 310.055L488 296.38L492.232 258.799L533.051 272.475L528.819 310.055Z" stroke="#A8C4E5" stroke-width="1.6658" stroke-miterlimit="10"/>
<path d="M279.658 265.57L238.838 251.888L243.07 214.308L283.89 227.99L279.658 265.57Z" stroke="#A8C4E5" stroke-width="1.6658" stroke-miterlimit="10"/>
<path d="M320.484 279.246L279.658 265.57L283.89 227.99L324.709 241.665L320.484 279.246Z" stroke="#A8C4E5" stroke-width="1.6658" stroke-miterlimit="10"/>
<path d="M361.303 292.921L320.484 279.246L324.709 241.665L365.535 255.341L361.303 292.921Z" stroke="#A8C4E5" stroke-width="1.6658" stroke-miterlimit="10"/>
<path d="M402.123 306.603L361.303 292.921L365.535 255.341L406.354 269.023L402.123 306.603Z" stroke="#A8C4E5" stroke-width="1.6658" stroke-miterlimit="10"/>
<path d="M442.949 320.278L402.123 306.603L406.355 269.023L447.174 282.698L442.949 320.278Z" stroke="#A8C4E5" stroke-width="1.6658" stroke-miterlimit="10"/>
<path d="M483.768 333.96L442.949 320.278L447.174 282.698L488 296.38L483.768 333.96Z" stroke="#A8C4E5" stroke-width="1.6658" stroke-miterlimit="10"/>
<path d="M524.587 347.636L483.768 333.96L488 296.38L528.819 310.055L524.587 347.636Z" stroke="#A8C4E5" stroke-width="1.6658" stroke-miterlimit="10"/>
<path d="M275.426 303.151L234.606 289.469L238.838 251.888L279.658 265.57L275.426 303.151Z" stroke="#A8C4E5" stroke-width="1.6658" stroke-miterlimit="10"/>
<path d="M316.252 316.826L275.426 303.151L279.658 265.57L320.484 279.246L316.252 316.826Z" stroke="#A8C4E5" stroke-width="1.6658" stroke-miterlimit="10"/>
<path d="M357.071 330.502L316.252 316.826L320.484 279.246L361.303 292.921L357.071 330.502Z" stroke="#A8C4E5" stroke-width="1.6658" stroke-miterlimit="10"/>
<path d="M397.898 344.183L357.071 330.502L361.303 292.921L402.123 306.603L397.898 344.183Z" stroke="#A8C4E5" stroke-width="1.6658" stroke-miterlimit="10"/>
<path d="M438.717 357.859L397.897 344.183L402.123 306.603L442.949 320.278L438.717 357.859Z" stroke="#A8C4E5" stroke-width="1.6658" stroke-miterlimit="10"/>
<path d="M479.536 371.541L438.717 357.859L442.949 320.278L483.768 333.96L479.536 371.541Z" stroke="#A8C4E5" stroke-width="1.6658" stroke-miterlimit="10"/>
<path d="M520.362 385.216L479.536 371.541L483.768 333.96L524.587 347.636L520.362 385.216Z" stroke="#A8C4E5" stroke-width="1.6658" stroke-miterlimit="10"/>
<path d="M271.201 340.731L230.375 327.049L234.606 289.469L275.426 303.151L271.201 340.731Z" stroke="#A8C4E5" stroke-width="1.6658" stroke-miterlimit="10"/>
<path d="M312.02 354.407L271.201 340.731L275.426 303.151L316.252 316.826L312.02 354.407Z" stroke="#A8C4E5" stroke-width="1.6658" stroke-miterlimit="10"/>
<path d="M352.839 368.089L312.02 354.407L316.252 316.826L357.071 330.502L352.839 368.089Z" stroke="#A8C4E5" stroke-width="1.6658" stroke-miterlimit="10"/>
<path d="M393.665 381.764L352.839 368.089L357.071 330.502L397.897 344.184L393.665 381.764Z" stroke="#A8C4E5" stroke-width="1.6658" stroke-miterlimit="10"/>
<path d="M434.485 395.439L393.666 381.764L397.897 344.184L438.717 357.859L434.485 395.439Z" stroke="#A8C4E5" stroke-width="1.6658" stroke-miterlimit="10"/>
<path d="M475.304 409.121L434.485 395.439L438.717 357.859L479.536 371.541L475.304 409.121Z" stroke="#A8C4E5" stroke-width="1.6658" stroke-miterlimit="10"/>
<path d="M516.13 422.797L475.304 409.121L479.536 371.541L520.362 385.216L516.13 422.797Z" stroke="#A8C4E5" stroke-width="1.6658" stroke-miterlimit="10"/>
<path d="M389.893 376.366L357.484 365.51L360.843 335.673L393.252 346.529L389.893 376.366Z" fill="#A8C4E5"/>
<path d="M320.943 236.38L288.534 225.524L291.893 195.688L324.302 206.551L320.943 236.38Z" fill="#A8C4E5"/>
<path d="M276.992 177.614L259.838 171.796C258.632 171.389 257.819 170.03 258.032 168.777C258.245 167.524 259.411 166.837 260.618 167.244L277.772 173.062C278.978 173.469 279.791 174.828 279.578 176.081C279.365 177.341 278.198 178.027 276.992 177.614Z" fill="#A8C4E5"/>
<path d="M263.483 200.253L250.621 195.894C249.715 195.588 249.108 194.568 249.268 193.628C249.428 192.689 250.301 192.175 251.208 192.482L264.07 196.841C264.976 197.147 265.583 198.167 265.423 199.106C265.263 200.039 264.39 200.559 263.483 200.253Z" fill="#1C4591"/>
<path d="M272.687 192.988L259.825 188.63C259.791 188.617 259.751 188.617 259.718 188.603L251.621 185.858C250.714 185.551 249.841 186.064 249.681 187.004C249.521 187.944 250.128 188.963 251.034 189.27L263.897 193.628C263.93 193.642 263.97 193.642 264.003 193.655L272.1 196.401C273.007 196.707 273.88 196.194 274.04 195.254C274.2 194.308 273.593 193.295 272.687 192.988Z" fill="#60BFFF"/>
<path d="M317.825 191.496L300.671 185.678C299.464 185.271 298.651 183.912 298.865 182.659C299.078 181.406 300.244 180.719 301.45 181.126L318.604 186.944C319.811 187.351 320.624 188.71 320.41 189.963C320.191 191.216 319.031 191.902 317.825 191.496Z" fill="#A8C4E5"/>
<path d="M358.651 205.371L341.497 199.553C340.29 199.146 339.477 197.787 339.691 196.534C339.904 195.281 341.07 194.595 342.276 195.001L359.431 200.819C360.637 201.226 361.45 202.585 361.237 203.838C361.023 205.091 359.857 205.778 358.651 205.371Z" fill="#A8C4E5"/>
<path d="M399.483 219.246L382.329 213.428C381.123 213.022 380.31 211.662 380.523 210.409C380.737 209.156 381.903 208.47 383.109 208.876L400.263 214.694C401.469 215.101 402.282 216.46 402.069 217.713C401.849 218.966 400.69 219.659 399.483 219.246Z" fill="#A8C4E5"/>
<path d="M443.868 233.415L426.714 227.597C425.508 227.19 424.695 225.831 424.908 224.578C425.121 223.325 426.288 222.638 427.494 223.045L444.648 228.863C445.854 229.269 446.667 230.629 446.454 231.882C446.241 233.135 445.074 233.828 443.868 233.415Z" fill="#A8C4E5"/>
<path d="M484.434 246.33L467.28 240.512C466.074 240.106 465.261 238.746 465.474 237.493C465.687 236.24 466.854 235.554 468.06 235.96L485.214 241.779C486.42 242.185 487.233 243.545 487.02 244.797C486.807 246.05 485.641 246.737 484.434 246.33Z" fill="#A8C4E5"/>
<path d="M521.968 260.879L504.814 255.061C503.608 254.654 502.795 253.295 503.008 252.042C503.221 250.789 504.388 250.102 505.594 250.509L522.748 256.327C523.954 256.733 524.767 258.093 524.554 259.346C524.341 260.599 523.174 261.285 521.968 260.879Z" fill="#A8C4E5"/>
<path d="M338.517 329.395L339.877 333.747C340.084 334.4 340.563 334.96 341.163 335.233L345.128 337.046C346.635 337.732 347.014 339.878 345.775 340.678L342.509 342.777C342.016 343.097 341.743 343.677 341.77 344.343L341.97 348.742C342.05 350.415 340.303 351.148 339.017 349.988L335.638 346.929C335.132 346.469 334.479 346.276 333.899 346.409L330.054 347.316C328.594 347.662 327.135 345.97 327.581 344.457L328.761 340.465C328.941 339.865 328.814 339.159 328.421 338.579L325.842 334.74C324.862 333.281 325.702 331.501 327.261 331.721L331.373 332.308C331.993 332.394 332.566 332.154 332.906 331.661L335.159 328.382C336.018 327.156 337.998 327.742 338.517 329.395Z" fill="#FFD22D"/>
<path d="M257.072 201.972C256.952 201.372 256.512 200.879 255.926 200.679L250.554 198.86C249.648 198.553 248.775 199.066 248.615 200.006C248.455 200.946 249.061 201.965 249.968 202.272L254.806 203.911C256.079 204.345 257.332 203.265 257.072 201.972Z" fill="#1C4591"/>
<path d="M261.071 272.868L243.916 267.05C242.71 266.643 241.897 265.284 242.11 264.031C242.324 262.778 243.49 262.092 244.696 262.498L261.85 268.316C263.057 268.723 263.87 270.082 263.656 271.335C263.443 272.588 262.277 273.274 261.071 272.868Z" fill="#45446C"/>
<path d="M252.52 275.16C252.36 274.361 251.781 273.708 250.994 273.441L243.83 271.008C242.624 270.602 241.457 271.288 241.244 272.541C241.031 273.794 241.844 275.154 243.05 275.56L249.501 277.746C251.187 278.319 252.867 276.886 252.52 275.16Z" fill="#45446C"/>
<path d="M373.346 234.408C376.558 240.086 379.777 245.771 382.989 251.449C383.955 253.148 386.674 253.661 388.034 252.102C390.193 249.609 392.352 247.123 394.512 244.631C397.204 241.525 392.686 236.96 389.973 240.092C387.814 242.585 385.655 245.071 383.495 247.563C385.175 247.777 386.854 247.996 388.54 248.216C385.328 242.538 382.109 236.854 378.897 231.176C376.858 227.577 371.306 230.809 373.346 234.408Z" fill="white"/>
<path d="M574.99 508.721L641.181 461.124L603.78 204.778L574.99 508.721Z" fill="#1C4591"/>
<path fill-rule="evenodd" clip-rule="evenodd" d="M422.342 318.059L406.801 341.444C404.149 345.436 406.801 341.444 406.801 341.444L400.21 326.01L387.721 318.726C393.119 340.045 395.685 352.254 400.283 356.179C402.176 357.806 404.475 358.785 406.561 357.386C411.753 353.92 420.883 347.682 422.416 345.756C430.02 336.213 438.13 328.002 438.13 328.002L423.375 316.493L422.342 318.059Z" fill="#FFAA82"/>
<path d="M421.496 316.36C423.429 314.754 425.461 310.735 424.275 308.836L421.396 306.07L414.472 303.264C412.539 304.87 412.559 310.595 413.745 312.494L415.831 315.827C417.018 317.726 419.57 317.966 421.496 316.36Z" fill="#FFAA82"/>
<path d="M369.82 296.94C369.927 296.846 370.054 296.766 370.2 296.7L397.124 285.07C398.091 284.65 399.483 285.117 400.237 286.117L424.821 318.712C424.908 318.825 424.975 318.939 425.035 319.052L425.455 319.499L425.188 320.492C425.061 320.825 424.801 321.105 424.422 321.265L397.497 332.894C396.531 333.314 395.138 332.847 394.385 331.848L369.8 299.252C369.414 298.732 369.274 298.179 369.367 297.706L369.567 296.906L369.82 296.94Z" fill="#1C4591"/>
<path d="M397.711 332.101L424.635 320.472C425.601 320.052 425.781 318.905 425.028 317.912L400.443 285.317C399.69 284.324 398.297 283.857 397.331 284.271L370.407 295.9C369.44 296.32 369.26 297.466 370.013 298.459L394.598 331.055C395.345 332.054 396.738 332.521 397.711 332.101Z" fill="#4367C7"/>
<path d="M397.005 329.082L422.896 317.906L398.084 285.863L372.2 297.04L397.005 329.082Z" fill="white"/>
<path d="M378.491 294.7C379.217 295.633 380.683 296.013 381.77 295.547L391.819 291.208C392.906 290.742 393.199 289.602 392.473 288.662C391.746 287.729 390.28 287.35 389.194 287.816L388.601 288.076C387.908 287.176 386.495 286.816 385.448 287.263L380.657 289.336C379.61 289.789 379.33 290.882 380.03 291.781L379.144 292.161C378.058 292.628 377.764 293.767 378.491 294.7Z" fill="#A8C4E5"/>
<path d="M378.737 293.741C379.464 294.674 380.93 295.054 382.016 294.587L392.066 290.249C393.152 289.782 393.446 288.642 392.719 287.703C391.993 286.77 390.527 286.39 389.44 286.856L388.847 287.116C388.154 286.217 386.741 285.857 385.695 286.303L380.903 288.376C379.857 288.829 379.577 289.922 380.277 290.822L379.39 291.202C378.304 291.668 378.011 292.801 378.737 293.741Z" fill="#E1EAF4"/>
<path d="M381.736 291.561L389.114 288.256C389.374 288.136 389.487 287.723 389.327 287.483C389.24 287.363 389.107 287.323 388.974 287.383L381.596 290.688C381.336 290.808 381.223 291.222 381.383 291.462C381.47 291.581 381.603 291.621 381.736 291.561Z" fill="white"/>
<path d="M415.338 310.928L422.542 312.148L426.148 313.907L425.435 316.606C425.435 316.606 419.237 315.267 417.784 314.827C416.331 314.374 411.833 312.221 415.338 310.928Z" fill="#FFAA82"/>
<path d="M382.902 303.504L401.303 295.453L399.703 293.208L381.31 301.251L382.902 303.504Z" fill="#E9F5FF"/>
<path d="M386.461 308.696L404.862 300.645L403.269 298.399L384.868 306.443L386.461 308.696Z" fill="#E9F5FF"/>
<path d="M390.207 314.407L408.607 306.363L407.014 304.111L388.614 312.161L390.207 314.407Z" fill="#E9F5FF"/>
<path d="M395.692 319.912L403.289 316.586L404.882 318.839L397.284 322.164L395.692 319.912Z" fill="#E9F5FF"/>
<path opacity="0.39" d="M475.926 515.815C475.961 507.714 461.124 501.083 442.787 501.005C424.45 500.927 409.557 507.43 409.522 515.531C409.487 523.633 424.324 530.263 442.661 530.342C460.998 530.42 475.891 523.916 475.926 515.815Z" fill="#A7BCF5"/>
<path d="M455.464 501.403C455.611 507.668 463.062 506.561 463.555 501.836C461.549 476.478 466.254 457.225 463.308 449.101L470.573 375.419L435.791 371.987L446.594 455.699L455.464 501.403Z" fill="#FFAA82"/>
<path d="M462.502 504.269L463.275 508.607C463.975 510.987 458.144 514.752 458.144 514.752C458.144 514.752 441.663 514.472 441.449 510.273C441.303 507.334 460.636 502.163 460.636 502.163L462.502 504.269Z" fill="#1C4591"/>
<path d="M454.558 494.179C454.558 494.179 451.965 504.022 447.48 506.841C445.994 507.774 445.068 509.147 447.9 509.354C453.465 509.76 458.69 507.188 459.943 502.796L461.249 501.23L454.558 494.179Z" fill="#FFAA82"/>
<path d="M463.675 492.266C463.675 492.266 467.547 492.04 466.994 502.803C466.987 502.943 466.601 505.448 466.474 505.375C460.889 502.056 462.402 506.062 462.402 506.062C457.151 507.374 451.919 510.587 449.72 509.394C449.72 509.394 458.017 508.068 459.496 498.284C459.99 495.039 463.675 492.266 463.675 492.266Z" fill="#1C4591"/>
<path d="M460.609 509.107L460.156 504.809C460.996 502.763 464.428 502.176 463.815 503.662C463.208 505.475 463.115 507.448 463.622 509.32C464.281 511.74 459.403 514.732 458.143 514.752C457.517 514.759 462.135 513.086 460.609 509.107Z" fill="#173978"/>
<path d="M466.74 498.324L468.553 512.959C468.68 513.446 467.547 514.499 466.974 513.192L461.256 501.783C461.056 501.323 461.042 500.81 461.229 500.357L462.535 497.085C463.155 495.518 466.314 496.658 466.74 498.324Z" fill="#1C4591"/>
<path d="M435.585 511.62C437.444 516.758 443.415 515.118 443.535 510.987C442.989 486.988 446.647 462.037 441.396 444.123C434.252 419.744 449.84 396.772 458.377 373.414L429.673 366.603C426.454 399.685 419.917 417.965 425.341 445.622C428.054 459.464 429.72 487.741 435.585 511.62Z" fill="#FFAA82"/>
<path d="M439.89 512.286L439.543 517.131C439.65 519.87 432.286 522.216 432.286 522.216C432.286 522.216 414.439 517.231 415.358 512.699C416.005 509.527 438.444 509.514 438.444 509.514L439.89 512.286Z" fill="#1C4591"/>
<path d="M433.459 499.637C433.459 499.637 428.494 509.027 422.849 510.753C420.976 511.326 419.597 512.526 422.616 513.552C428.56 515.572 434.938 514.312 437.504 509.987L439.35 508.694L433.459 499.637Z" fill="#FFAA82"/>
<path d="M442.602 501.05C443.242 500.563 444.222 500.617 444.808 501.23C446.034 502.503 447.414 505.608 445.388 513.019C445.348 513.166 444.335 515.765 444.222 515.658C438.877 510.72 439.59 515.392 439.59 515.392C433.519 515.512 426.734 515.925 424.602 514.099C424.602 514.099 434.312 516.471 438.23 506.315C439.13 503.969 441.336 502.023 442.602 501.05Z" fill="#1C4591"/>
<path d="M436.504 516.905L437.184 512.193C438.657 510.247 442.549 510.6 441.476 512.013C440.323 513.772 439.683 515.852 439.723 517.991C439.783 520.757 433.652 522.563 432.279 522.216C431.599 522.049 437.084 521.576 436.504 516.905Z" fill="#173978"/>
<path d="M446.128 507.155L444.095 523.269C444.095 523.822 442.575 524.622 442.316 523.069L439.217 509.28C439.123 508.734 439.25 508.181 439.576 507.748L441.889 504.635C442.995 503.149 446.114 505.255 446.128 507.155Z" fill="#1C4591"/>
<path d="M463.608 450.061C463.608 450.061 454.645 460.764 447.76 461.683L446.347 454.946L463.608 450.061Z" fill="#EA8A6C"/>
<path fill-rule="evenodd" clip-rule="evenodd" d="M459.037 392.754C458.357 392.76 457.69 392.52 457.177 392.08C456.664 391.641 456.351 391.048 456.297 390.414C456.157 388.595 455.958 386.089 455.818 384.303C455.724 383.077 456.717 382.071 458.044 382.057C458.977 382.044 460.063 382.031 461.062 382.024C462.835 382.004 464.381 383.317 464.508 384.963C464.635 386.576 464.788 388.548 464.908 390.095C464.961 390.781 464.721 391.441 464.235 391.934C463.748 392.427 463.055 392.707 462.315 392.714C461.262 392.727 460.063 392.74 459.037 392.754Z" fill="#FFC2B0"/>
<path d="M427.241 276.967C427.261 277.326 426.701 278.693 426.741 279.232C426.981 282.425 426.781 288.429 429.647 289.689C435.525 292.275 439.81 291.868 444.895 291.695C446.914 291.628 448.447 290.035 449.833 288.756C456.517 282.598 459.91 277.96 456.824 268.036C453.738 258.113 445.281 250.629 438.657 255.827C431.459 261.472 426.055 257.407 427.241 276.967Z" fill="#FFAA82"/>
<path d="M450.326 311.315L451.466 311.115C455.311 310.442 457.724 306.963 456.824 303.384L451.772 283.204C450.879 279.626 447.001 277.246 443.155 277.92L442.016 278.119C438.17 278.793 435.198 282.105 436.098 285.684C439.956 293.128 441.956 301.118 438.45 305.777C439.35 309.355 446.481 311.988 450.326 311.315Z" fill="#FFAA82"/>
<path d="M473.971 383.957C472.678 374.786 468.247 372.027 467.12 358.452C466.434 350.195 467.074 345.097 469.753 334.433C475.731 311.668 475.791 295.713 462.089 294.434L456.431 295.314C453.712 295.733 451.006 295.82 448.473 296.773C421.676 306.89 422.749 308.116 423.102 322.571C422.076 339.005 420.583 337.879 422.482 342.357C424.801 347.836 426.374 355.34 425.368 367.262C429.846 384.09 467.354 395.146 473.971 383.957Z" fill="#D9EAFF"/>
<path d="M442.329 291.775C448.52 288.656 448.467 285.304 443.595 281.758C445.261 287.116 440.496 294.527 428.98 289.382C428.98 289.382 432.559 291.528 440.863 292.388C441.442 292.448 442.002 292.208 442.329 291.775Z" fill="#EA8A6C"/>
<path d="M425.648 358.325L421.243 445.502C421.243 445.502 433.865 467.361 466.607 447.462L470.313 406.875C478.263 377.965 475.997 371.321 466.874 353.927C453.578 362.591 444.528 361.571 425.648 358.325Z" fill="#FF80AE"/>
<path d="M472.145 399.405C472.145 399.405 465.781 403.69 458.636 401.397L470.312 406.882L472.145 399.405Z" fill="#BC4073"/>
<path d="M437.764 291.282C437.764 291.282 447.44 294.94 446.661 300.012L456.098 298.239L449.493 277.146C449.493 277.146 443.375 289.669 436.764 291.095L437.764 291.282Z" fill="#EA8A6C"/>
<path d="M457.604 284.277C457.604 284.277 458.73 286.357 451.886 287.203C443.449 288.249 446.281 279.626 437.031 276.8C436.291 276.573 435.305 277.666 434.092 276.18C433.645 275.64 433.865 269.376 433.259 268.916C425.515 263.065 425.448 262.898 427.174 259.819C429.907 254.954 438.67 250.682 448.067 253.441C457.51 256.214 473.205 257.187 457.604 284.277Z" fill="#915A34"/>
<path d="M424.828 279.352C424.382 280.125 425.381 280.665 426.334 281.052C426.788 281.238 427.321 281.405 427.761 281.305C428.234 281.205 428.44 280.839 428.534 280.492C428.78 279.579 429.56 277.666 428 277.08C427.361 276.84 427.547 274.061 427.441 274.494C426.868 276.88 425.675 277.88 424.828 279.352Z" fill="#FFAA82"/>
<path d="M424.828 280.139C424.828 280.139 426.254 281.352 427.427 281.365C427.427 281.365 428.314 281.112 427.774 280.445C427.247 279.779 426.974 281.432 424.828 280.139Z" fill="#EA8A6C"/>
<path d="M424.668 345.263L434.898 332.901L425.148 356.179L424.668 345.263Z" fill="#A2C2E8"/>
<path d="M435.111 264.771C435.111 264.771 427.461 266.303 427.101 272.768C427.101 272.768 421.283 268.316 426.228 260.965C431.166 253.608 435.111 264.771 435.111 264.771Z" fill="#915A34"/>
<path d="M440.923 290.369C441.176 288.976 442.036 287.463 442.462 286.117C442.882 284.784 440.229 281.871 440.583 280.512C440.176 278.339 442.555 278.653 442.555 278.653L448.027 274.907L449.213 282.764L448.053 271.428L451.979 270.016C451.939 269.629 451.959 269.202 452.059 268.716C452.345 267.356 452.439 266.717 452.452 265.357C452.479 263.544 451.812 254.481 461.069 258.639C462.395 259.233 464.861 263.558 465.481 271.708C465.741 275.16 467.014 278.406 469.28 280.998C471.585 283.638 474.051 287.609 473.731 292.321C473.751 293.761 473.658 295.327 472.898 296.566C471.852 298.279 470.066 299.839 468.473 299.879C468.346 299.879 468.233 299.859 468.12 299.812L467.933 300.005C466.5 301.751 463.075 305.697 456.997 304.504C456.997 304.504 449.186 306.996 447.967 303.471C447.674 302.631 447.187 301.112 446.714 299.179C444.841 298.479 442.782 297.579 441.809 296.02C441.516 295.547 441.249 295.054 441.062 294.5C440.629 293.234 440.663 291.761 440.923 290.369Z" fill="#915A34"/>
<path d="M431.559 303.844C426.334 307.223 419.863 310.188 417.084 320.412C416.618 322.138 415.985 324.85 415.098 326.41L401.483 344.93C404.788 357.632 403.429 352.101 408.68 357.419C424.608 346.883 430.286 338.326 439.203 323.93L431.559 303.844Z" fill="#D9EAFF"/>
<path d="M435.371 279.606C436.124 282.018 437.61 283.618 440.19 283.031C442.769 282.445 444.455 279.719 443.702 277.306C442.949 274.894 441.276 273.581 438.69 274.167C436.104 274.754 434.618 277.193 435.371 279.606Z" fill="#FFAA82"/>
<path d="M438.844 278.219C438.844 278.219 440.316 278.433 440.223 279.319C440.13 280.205 439.59 280.359 439.59 280.359C439.59 280.359 440.476 281.138 441.356 280.312C442.229 279.486 442.716 278.159 441.249 276.907C440.05 275.894 438.844 278.219 438.844 278.219Z" fill="#EA8A6C"/>
<path d="M351.406 263.851L357.078 260.999L351.353 258.953L351.406 263.851Z" fill="#BAD4FF"/>
<path d="M355.412 261.832L357.078 260.992L355.099 260.286C355.972 260.779 356.032 261.299 355.412 261.832Z" fill="#3B2AD1"/>
<path d="M353.079 260.585C353.572 261.938 352.826 263.398 351.406 263.851C349.987 264.297 348.434 263.571 347.941 262.212C347.448 260.859 348.194 259.399 349.614 258.946C351.033 258.493 352.586 259.233 353.079 260.585Z" fill="#1C4591"/>
<path d="M349.42 259.019L322.683 262.391L324.302 267.336L346.855 264.417L349.42 259.019Z" fill="#1C4591"/>
<path d="M351.04 261.472C350.82 261.538 350.6 261.578 350.38 261.592V261.605L326.568 264.497L325.795 267.157L350.693 263.938V263.924C350.913 263.911 351.133 263.871 351.353 263.804C352.566 263.418 353.292 262.292 353.166 261.125L351.04 261.472Z" fill="#1C4591"/>
<path d="M323.949 262.212L322.37 262.425L322.663 263.291C322.436 263.844 322.403 264.537 322.623 265.244C322.863 266.01 323.343 266.623 323.909 266.963L324.036 267.343L324.902 267.29L324.909 267.27C325.055 267.27 325.195 267.256 325.335 267.216C326.408 266.93 326.928 265.584 326.502 264.211C326.095 262.905 324.975 262.052 323.949 262.212Z" fill="#E1EAF4"/>
<path d="M322.596 262.378C322.569 262.385 322.549 262.398 322.523 262.405L320.923 262.705L321.317 264.004C321.25 264.431 321.283 264.911 321.43 265.39C321.576 265.857 321.81 266.27 322.103 266.597L322.436 267.683L323.922 267.403C323.996 267.396 324.069 267.383 324.136 267.363C325.209 267.076 325.728 265.73 325.302 264.357C324.875 262.985 323.669 262.092 322.596 262.378Z" fill="#E6558A"/>
<path d="M323.709 264.644C324.136 266.017 323.616 267.363 322.543 267.65C321.47 267.936 320.257 267.057 319.837 265.684C319.417 264.311 319.93 262.965 321.003 262.678C322.07 262.391 323.283 263.271 323.709 264.644Z" fill="#FF80AE"/>
<path d="M286.636 236.66L276.879 239.093L269.755 233.208C269.755 233.208 283.237 227.33 286.636 236.66Z" fill="#492817"/>
<path d="M264.23 224.278C264.23 224.278 257.759 224.404 256.326 241.085C255.326 252.688 257.499 259.093 268.055 260.372C274.773 261.185 281.617 259.759 282.41 253.981C283.25 250.649 282.93 244.464 283.39 241.339C284.163 236.094 284.276 234.988 282.897 230.869C283.856 223.905 278.745 226.324 270.294 225.757L264.23 224.278Z" fill="#FFAA82"/>
<path opacity="0.39" d="M263.075 493.802C282.663 493.647 298.489 486.783 298.423 478.473C298.357 470.162 282.424 463.55 262.836 463.706C243.247 463.862 227.421 470.725 227.487 479.036C227.553 487.347 243.486 493.958 263.075 493.802Z" fill="#A7BCF5"/>
<path d="M284.116 293.261C288.648 298.619 310.18 299.479 310.18 299.479C310.18 299.479 325.455 300.399 340.417 272.042C343.629 265.95 334.532 265.31 330.76 272.821C325.762 278.079 313.419 287.69 313.419 287.69C313.419 287.69 298.518 290.189 290.174 280.465C286.162 275.814 279.258 287.523 284.116 293.261Z" fill="#FFAA82"/>
<path d="M242.737 333.754C238.479 331.934 233.447 329.789 230.261 326.929C228.702 325.53 228.515 325.337 227.729 323.697C227.129 322.444 227.922 324.564 227.562 323.224C227.482 322.931 227.409 322.638 227.349 322.338C227.089 321.045 227.136 322.211 227.242 320.612C227.476 317.06 228.842 313.034 230.395 309.042C232.854 302.711 235.686 296.507 238.345 290.249C240.978 284.051 230.994 281.365 228.382 287.503C225.47 294.354 222.317 301.152 219.738 308.123C218.099 312.548 216.579 317.366 216.819 322.064C217.392 333.281 227.816 338.665 237.086 342.624C239.658 343.724 242.624 343.377 244.317 340.791C245.709 338.645 245.283 334.847 242.737 333.754Z" fill="#FFAA82"/>
<path d="M235.813 267.67C228.462 277.326 221.691 297.353 220.191 304.89C219.785 306.923 229.875 310.408 231.961 309.402L235.686 301.451C235.686 301.451 239.032 289.376 251.861 273.701C253.527 269.849 251.887 265.944 248.069 264.671C244.097 263.351 240.091 262.591 235.813 267.67Z" fill="#46A6E8"/>
<path d="M221.831 297.399C221.831 297.399 223.957 300.032 230.388 300.372" stroke="white" stroke-width="2.7213" stroke-miterlimit="10" stroke-linecap="round" stroke-linejoin="round"/>
<path d="M254.406 264.437L261.271 246.517L269.928 258.613L265.749 271.228C265.023 273.901 252.673 270.575 254.406 264.437Z" fill="#F28F70"/>
<path d="M234.507 343.264C233.84 353.64 235.526 405.583 234.22 413.26C231.581 428.755 234.613 442.157 233.86 457.478C233.374 467.328 248.408 467.315 249.828 457.332C252.12 441.204 251.187 428.548 252.48 411.247C253.067 403.403 254.3 369.815 253.88 362.171C253.14 348.649 251.967 360.678 248.642 347.942C246.276 338.885 234.507 343.264 234.507 343.264Z" fill="#1C4591"/>
<path d="M244.809 371.881L245.622 375.026C247.109 376.373 281.377 395.566 282.223 378.885C282.297 377.465 283.516 356.259 282.223 355.546C272.12 349.995 256.305 332.867 241.311 340.765C223.99 349.895 237.712 365.436 244.809 371.881Z" fill="#1C4591"/>
<path d="M235.346 268.316C232.341 272.621 231.214 284.551 231.481 289.429C231.748 294.194 232.914 291.721 238.045 291.821L290.434 292.848C290.434 292.848 295.652 280.785 283.31 271.975C280.911 270.262 274.953 266.723 271.814 264.877C270.634 264.184 269.155 264.218 268.015 264.971C261.191 269.502 256.213 269.229 254.16 261.312C246.143 262.325 240.971 260.259 235.346 268.316Z" fill="#60BFFF"/>
<path d="M230.314 353.227C233.487 326.943 227.182 314.087 232.254 279.726L288.135 281.545C288.441 305.91 281.35 327.916 285.296 356.773C272.467 364.297 253.92 365.176 233.733 358.632C231.454 357.886 230.028 355.606 230.314 353.227Z" fill="#60BFFF"/>
<path d="M256.632 472.393C256.252 472.573 250.901 473.853 250.541 474.019C249.994 474.272 248.388 474.966 247.428 475.325C245.409 476.092 240.771 479.351 235.126 476.005C226.862 471.107 250.994 462.776 250.994 462.776L261.437 460.151C262.71 459.831 264.123 459.997 265.242 460.597C267.308 461.703 267.748 463.903 266.175 465.349C263.483 467.828 263.016 469.401 256.632 472.393Z" fill="#2C4482"/>
<path d="M256.059 470.234C255.679 470.414 250.328 471.693 249.968 471.86C249.421 472.113 247.815 472.806 246.855 473.166C244.836 473.933 240.198 477.191 234.553 473.846C231.001 471.74 232.934 465.969 236.866 463.529C242.077 460.297 250.421 460.617 250.421 460.617L260.864 457.991C262.137 457.671 263.55 457.838 264.669 458.438C266.735 459.544 267.175 461.743 265.602 463.19C262.903 465.669 262.437 467.241 256.059 470.234Z" fill="#97CBFF"/>
<path d="M263.21 465.755C263.863 465.089 264.923 463.816 265.756 463.043C267.329 461.597 266.735 459.551 264.67 458.444C263.55 457.845 262.137 457.678 260.864 457.998L255.766 459.278C258.385 460.344 261.204 462.55 263.21 465.755Z" fill="#B8DBFF"/>
<path d="M248.422 458.478C244.583 461.477 237.546 461.617 235.406 458.338C235.073 460.257 234.773 462.17 234.533 464.076C233.56 471.847 246.769 470.9 247.742 463.103C247.935 461.563 248.162 460.024 248.422 458.478Z" fill="#E1EAF4"/>
<path d="M232.114 457.358L231.448 462.736C231.421 462.97 231.468 463.176 231.588 463.343C232.294 464.322 235.166 466.608 241.638 465.655C247.296 464.822 250.361 462.716 251.614 461.803C252.001 461.523 252.334 460.624 252.361 460.224L252.68 454.552C252.72 453.739 251.827 453.4 250.994 453.919C247.949 455.845 241.371 458.991 234.08 456.092C233.314 455.792 232.221 456.485 232.114 457.358Z" fill="#2E5CB0"/>
<path d="M286.369 247.237C286.382 247.57 286.109 247.856 285.842 248.076C285.089 248.716 284.223 249.216 283.297 249.543C282.857 249.702 282.344 249.816 281.957 249.596C281.544 249.369 281.417 248.849 281.391 248.376C281.317 247.123 280.231 244.964 281.744 244.504C282.364 244.318 283.223 240.126 283.357 240.706C283.89 243.025 285.476 245.897 286.369 247.237Z" fill="#FFAA82"/>
<path d="M256.552 368.629C260.978 391.161 261.511 400.684 261.751 426.855C261.884 441.344 261.324 460.011 260.558 474.392C260.051 483.836 277.039 481.85 277.545 472.373C278.338 457.565 279.991 441.837 280.471 426.882C281.137 406.216 281.197 394.36 282.864 357.326C283.277 348.129 261.471 365.083 264.27 373.687L256.552 368.629Z" fill="#1C4591"/>
<path d="M280.498 487.701C280.098 487.841 274.7 488.528 274.32 488.661C273.747 488.861 272.067 489.394 271.074 489.661C268.982 490.22 263.903 493.113 259.085 488.821C252.027 482.543 276.852 476.725 276.852 476.725L287.415 475.245C288.701 475.066 290.034 475.425 291.001 476.205C292.787 477.651 292.8 480.05 291.014 481.39C287.948 483.703 287.209 485.322 280.498 487.701Z" fill="#2C4482"/>
<path d="M280.477 485.362C280.077 485.489 274.679 486.102 274.306 486.222C273.733 486.402 272.053 486.881 271.067 487.121C268.981 487.621 263.916 490.227 259.071 486.368C255.752 483.723 258.865 478.144 263.716 476.178C269.214 473.946 276.785 475.492 276.785 475.492L287.342 474.166C288.628 474.006 289.961 474.326 290.934 475.032C292.726 476.332 292.753 478.491 290.974 479.697C287.908 481.763 287.175 483.216 280.477 485.362Z" fill="#97CBFF"/>
<path d="M288.075 481.83C288.821 481.27 290.188 480.21 291.141 479.571C292.92 478.364 292.72 476.332 290.927 475.032C289.954 474.326 288.621 474.006 287.335 474.166L282.184 474.812C284.509 476.138 286.722 478.524 288.075 481.83Z" fill="#B8DBFF"/>
<path d="M274.986 474.806C271.161 477.351 264.383 478.398 261.99 475.119C261.744 476.912 261.017 477.245 260.871 479.037C260.271 486.335 273.926 486.462 274.533 479.137C274.646 477.698 274.806 476.252 274.986 474.806Z" fill="#E1EAF4"/>
<path d="M257.952 473.179L257.638 478.218C257.625 478.431 257.685 478.638 257.825 478.818C258.631 479.857 261.77 482.443 268.421 482.45C274.239 482.456 277.272 480.884 278.511 480.197C278.898 479.984 279.178 479.171 279.171 478.798L279.104 473.433C279.091 472.666 278.138 472.206 277.312 472.593C274.286 473.999 267.675 476.059 259.904 472.26C259.091 471.86 258.005 472.366 257.952 473.179Z" fill="#2E5CB0"/>
<path d="M288.968 286.896L275.759 280.958C270.814 309.149 271.54 332.674 274.419 353.121C274.419 353.121 274.813 362.617 259.618 361.564C252.973 360.931 246.296 361.884 240.464 360.511C248.168 364.003 261.684 367.696 272.12 368.689C282.55 371.947 285.895 360.651 285.909 358.205C285.995 343.744 281.324 329.795 288.968 286.896Z" fill="#46A6E8"/>
<path d="M274.746 287.563C286.962 295.527 295.486 299.086 299.564 300.512C300.971 301.005 302.877 299.925 303.53 298.266L307.622 287.883C308.161 286.51 307.628 285.244 306.389 284.977C302.703 284.191 296.512 280.112 286.535 275.1C283.303 274.294 276.039 274.634 273.693 278.286C271.241 282.091 271.707 286.177 274.746 287.563Z" fill="#60BFFF"/>
<path d="M276.492 228.27C272.66 229.983 273.126 233.248 277.298 232.982C280.737 232.762 284.343 235.001 285.609 236.347C286.242 237.02 287.502 236.607 287.608 235.694C287.895 233.341 287.115 228.876 283.849 225.604C282.35 224.098 281.064 226.224 276.492 228.27Z" fill="#492817"/>
<path d="M296.452 298.746C296.452 298.746 301.744 288.523 302.523 283.611" stroke="white" stroke-width="2.4506" stroke-miterlimit="10" stroke-linecap="round" stroke-linejoin="round"/>
<path d="M285.176 248.15C285.176 248.15 283.836 249.223 282.797 249.189C282.797 249.189 282.037 248.923 282.557 248.323C283.077 247.73 283.197 249.269 285.176 248.15Z" fill="#EA8A6C"/>
<path d="M269.568 260.519C269.568 260.519 263.097 258.593 262.697 254.627L261.291 246.104C261.291 246.104 270.374 258.506 276.079 260.066C274.206 260.579 271.96 260.639 269.568 260.519Z" fill="#EA8A6C"/>
<path d="M250.894 236.52C253.72 221.166 265.396 222.685 274.54 221.932C274.54 221.932 279.564 221.752 283.67 225.437C286.455 227.937 283.13 232.962 277.885 232.975C273.053 232.988 276.985 240.346 275.599 243.131C274.073 246.197 273.233 246.33 269.854 247.33C263.397 249.243 266.322 256.187 262.47 256.653C260.937 256.84 257.925 256.713 256.852 254.847C255.866 253.121 248.748 248.183 250.894 236.52Z" fill="#492817"/>
<path d="M273.58 245.524C274.06 248.203 272.833 250.749 270.834 251.209C270.614 251.262 270.394 251.282 270.181 251.282C268.415 251.269 266.775 249.583 266.342 247.197C265.862 244.518 267.089 241.972 269.088 241.512C271.087 241.045 273.1 242.845 273.58 245.524Z" fill="#FFAA82"/>
<path d="M271.121 246.317C271.427 245.97 271.367 245.451 270.994 245.224C270.454 244.898 269.674 244.664 269.294 245.704C268.915 246.75 269.688 247.737 270.321 248.33C270.434 248.436 270.621 248.296 270.561 248.156C270.367 247.717 270.274 247.177 270.694 246.764C270.867 246.59 271.007 246.444 271.121 246.317Z" fill="#EA8A6C"/>
<path d="M275.852 267.676C262.364 268.996 253.627 271.115 249.828 261.978C251.761 260.412 254.306 260.352 255.659 261.772C258.038 264.258 263.09 266.017 268.495 264.144C270.114 263.584 272.767 264.171 273.686 265.217L275.852 267.676Z" fill="#46A6E8"/>
<path d="M345.922 259.459C345.922 259.466 345.409 263.178 339.377 260.279C339.284 260.405 338.984 260.932 338.578 261.665C339.697 260.785 341.157 260.166 342.303 260.152C346.842 260.112 348.774 261.145 348.854 261.185L348.961 261.245L348.981 261.385C348.987 261.438 349.054 261.918 348.648 262.425C347.848 263.418 345.855 263.744 342.723 263.398C341.883 263.304 340.97 263.738 340.004 264.677C340.684 264.191 341.417 263.931 342.083 263.938C344.156 263.971 348.328 265.117 348.501 265.17L348.668 265.217L348.688 265.417C348.694 265.464 348.721 265.917 348.314 266.37C348.174 266.53 348.001 266.663 347.795 266.783C347.861 266.79 347.895 266.79 347.895 266.79L348.181 266.81L348.121 267.143C347.681 269.602 345.402 269.516 343.736 269.449C343.523 269.442 343.309 269.429 343.109 269.429C342.33 269.416 341.25 269.696 340.75 270.535C339.371 272.848 338.484 274.641 338.258 275.58C338.204 275.814 337.398 277.66 337.298 277.933C335.465 283.124 330.181 281.338 329.607 276.053C331.92 270.382 334.199 261.732 336.692 259.319L336.718 259.273C336.725 259.279 345.902 258.619 345.922 259.459Z" fill="#FFAA82"/>
<path d="M278.058 140.073C278.058 119.3 289.801 99.9004 304.283 96.7415C313.333 94.7688 321.317 99.6005 326.029 108.577" stroke="#1C4591" stroke-width="6.4028" stroke-miterlimit="10" stroke-linecap="round" stroke-linejoin="round"/>
<path d="M515.557 219.873C515.557 199.1 527.3 179.7 541.781 176.541C550.832 174.568 558.816 179.4 563.527 188.377" stroke="#1C4591" stroke-width="6.4028" stroke-miterlimit="10" stroke-linecap="round" stroke-linejoin="round"/>
<path d="M492.172 345.343L508.366 371.514" stroke="#A8C4E5" stroke-width="2.1343" stroke-miterlimit="10" stroke-linecap="round" stroke-linejoin="round"/>
<path d="M492.172 362.271L512.225 352.141" stroke="#A8C4E5" stroke-width="2.1343" stroke-miterlimit="10" stroke-linecap="round" stroke-linejoin="round"/>
<path d="M378.031 228.057L394.225 254.234" stroke="#A8C4E5" stroke-width="2.1343" stroke-miterlimit="10" stroke-linecap="round" stroke-linejoin="round"/>
<path d="M378.031 244.991L398.091 234.854" stroke="#A8C4E5" stroke-width="2.1343" stroke-miterlimit="10" stroke-linecap="round" stroke-linejoin="round"/>
<path d="M237.426 193.742L177.339 175.821C179.785 164.951 180.372 154.122 181.145 144.112L241.231 162.032C240.844 171.016 239.898 181.866 237.426 193.742Z" fill="#FFD22D"/>
<path d="M233.347 173.315L208.275 165.838C207.036 165.471 206.196 163.825 206.396 162.166C206.596 160.506 207.762 159.46 208.995 159.833L234.067 167.311C235.306 167.677 236.146 169.323 235.946 170.983C235.746 172.636 234.58 173.682 233.347 173.315Z" fill="white"/>
<path d="M232.847 184.718L217.539 180.153C216.299 179.786 215.46 178.14 215.66 176.481C215.859 174.821 217.026 173.775 218.259 174.148L233.567 178.713C234.806 179.08 235.646 180.726 235.446 182.385C235.246 184.045 234.08 185.091 232.847 184.718Z" fill="white"/>
<path opacity="0.39" d="M151.59 408.524C171.329 407.999 187.131 400.072 186.884 390.819C186.638 381.566 170.437 374.49 150.698 375.016C130.96 375.541 115.158 383.468 115.404 392.721C115.65 401.974 131.851 409.049 151.59 408.524Z" fill="#A7BCF5"/>
<path d="M144.57 410.507C157.982 410.202 168.735 404.7 168.588 398.216C168.441 391.733 157.449 386.724 144.037 387.029C130.625 387.333 119.872 392.836 120.019 399.319C120.167 405.803 131.159 410.811 144.57 410.507Z" fill="#95C1F5"/>
<path d="M143.647 408.634C159.951 408.264 173.023 401.574 172.844 393.693C172.665 385.811 159.303 379.722 142.999 380.092C126.695 380.462 113.623 387.152 113.802 395.033C113.981 402.915 127.343 409.004 143.647 408.634Z" fill="#CFE4FA"/>
<path d="M99.0063 348.289L113.941 396.119L172.694 395.433L185.99 347.349L99.0063 348.289Z" fill="#CFE4FA"/>
<path d="M169.569 361.058L156.9 395.639H156.893C154.62 400.391 153.494 402.137 148.723 404.59C145.277 406.362 140.179 407.562 135.78 408.308C145.73 409.455 155.38 408.262 163.244 404.57C166.983 402.81 170.009 401.857 172.461 396.259L173.474 393.407L185.99 347.356L169.569 361.058Z" fill="#B0CFF5"/>
<path d="M142.702 363.247C167.11 362.957 186.796 354.299 186.672 343.91C186.549 333.52 166.662 325.333 142.255 325.624C117.847 325.914 98.161 334.572 98.2847 344.961C98.4083 355.351 118.295 363.538 142.702 363.247Z" fill="#B4D3FA"/>
<path d="M142.511 361.994C163.463 361.745 180.361 354.314 180.255 345.397C180.149 336.48 163.078 329.453 142.127 329.702C121.175 329.951 104.276 337.382 104.382 346.3C104.488 355.217 121.559 362.244 142.511 361.994Z" fill="#4C89D4"/>
<path d="M170.395 356.466C156.307 363.204 132.308 363.923 116.807 358.079C105.617 353.86 101.692 347.289 105.997 341.558C111.975 333.607 172.814 335.853 174.647 337.099C183.277 342.984 182.025 350.901 170.395 356.466Z" fill="#69A5ED"/>
<path d="M148.196 344.863C148.236 346.483 145.697 347.856 142.538 347.929C139.372 348.002 136.78 346.749 136.74 345.13C136.7 343.51 139.239 342.138 142.398 342.064C145.564 341.991 148.156 343.244 148.196 344.863Z" fill="#4C89D4"/>
<path d="M103.704 355.526C103.704 355.526 117.8 367.262 144.337 366.069C170.875 364.876 181.291 354.393 181.291 354.393" stroke="white" stroke-width="1.009" stroke-miterlimit="10" stroke-linecap="round" stroke-linejoin="round"/>
<path d="M142.598 346.15C143.651 346.15 144.511 345.276 144.511 344.204V242.238C144.511 241.165 143.658 240.292 142.598 240.292C141.545 240.292 140.685 241.165 140.685 242.238V344.204C140.685 345.276 141.538 346.15 142.598 346.15Z" fill="#1D50CF"/>
<path d="M143.378 299.212C143.791 299.212 144.204 299.079 144.557 298.799L169.435 278.899C170.268 278.233 170.408 277.013 169.755 276.167C169.102 275.32 167.902 275.174 167.069 275.84L142.191 295.74C141.358 296.407 141.218 297.626 141.871 298.473C142.251 298.959 142.811 299.212 143.378 299.212Z" fill="#1D50CF"/>
<path d="M142.298 286.936C142.725 286.936 143.151 286.79 143.504 286.497C144.324 285.817 144.444 284.591 143.778 283.758L122.198 256.84C121.532 256.007 120.326 255.88 119.506 256.56C118.686 257.24 118.566 258.466 119.233 259.299L140.812 286.217C141.198 286.697 141.745 286.936 142.298 286.936Z" fill="#1D50CF"/>
<path d="M134.694 249.616C134.694 249.616 149.096 264.424 164.024 259.013C178.952 253.601 162.084 255.421 158.039 251.255C153.994 247.09 157.986 244.658 161.131 244.911C164.27 245.164 182.238 245.577 181.651 238.673C181.065 231.775 169.982 241.612 168.416 235.854C166.856 230.096 166.616 235.267 178.419 230.742C188.109 227.03 190.268 215.628 188.209 213.988C184.557 211.076 178.212 219.586 175.74 217.5C173.274 215.414 186.303 208.137 184.163 199.386C182.031 190.636 179.019 185.791 179.019 185.791C179.019 185.791 176.313 188.583 168.735 192.209C161.158 195.834 154.98 198.24 155.973 206.751C156.966 215.261 149.862 210.183 152.314 200.779C154.774 191.369 149.755 190.123 146.75 197.58C143.977 204.445 141.272 213.195 140.005 215.721C138.746 218.24 139.032 218.387 139.339 211.496C139.645 204.605 134.574 201.812 131.655 204.091C128.736 206.371 130.015 226.837 136.626 230.096C143.231 233.361 135.96 243.425 130.309 231.202C124.657 218.98 123.104 217.134 121.178 225.391C119.266 233.648 127.989 244.304 134.694 249.616Z" fill="#69A5ED"/>
<path d="M144.277 243.698C152.721 240.519 170.888 235.834 175.873 243.845C176 244.044 163.944 248.65 162.024 248.496C158.885 248.243 159.612 249.769 163.657 253.934C167.702 258.1 175.52 248.59 160.592 254.008C150.388 257.706 141.172 253.721 135.893 249.716C138.246 247.457 141.205 244.858 144.277 243.698Z" fill="#478BDE"/>
<path d="M101.465 278.899C109.516 275.42 109.203 278.546 107.497 273.694C106.757 271.595 104.751 272.035 102.485 273.015C92.5418 279.519 92.4018 266.617 103.791 263.844C108.296 262.458 112.941 263.278 114.414 263.118C117.647 262.765 121.592 259.539 117.2 256.094C115.201 254.528 110.556 254.727 107.503 254.627C106.55 254.594 105.844 253.734 106.011 252.795C106.084 252.375 106.324 252.002 106.677 251.762C107.617 251.122 108.903 250.349 110.616 249.389C125.577 241.032 141.205 253.261 141.205 253.261C148.389 257.353 157.953 266.47 156.48 275.207C155 283.951 153.308 282.371 146.79 271.082C140.272 259.786 133.428 271.382 140.385 273.421C147.343 275.454 149.882 295.947 147.023 298.812C144.164 301.678 138.813 299.832 138.713 292.788C138.613 285.744 132.648 284.004 131.508 286.796C130.369 289.596 135.874 299.186 136.407 307.329C136.94 315.473 124.118 316.146 126.07 306.143C128.023 296.14 117.447 285.817 118.973 294.247C120.499 302.678 119.479 311.335 111.935 316.466C104.391 321.598 99.626 326.463 99.626 326.463C99.626 326.463 97.1935 323.337 94.7943 317.213C89.3895 298.632 92.6618 286.663 101.465 278.899Z" fill="#86BAF7"/>
<path d="M170.382 252.382C168.183 256.82 172.621 257.1 175.213 256.553C177.806 256.007 188.582 257.107 191.275 262.252C194.487 268.396 178.426 267.243 179.472 270.682C180.705 274.721 181.831 276.233 190.055 274.507C200.765 272.261 208.789 281.885 206.043 284.537C203.297 287.19 191.421 285.497 189.942 287.763C188.462 290.029 196.413 290.842 199.232 299.119C202.431 308.516 198.719 317.886 198.386 319.079C197.153 319.205 187.183 321.358 178.466 316.613C170.788 312.428 169.142 303.024 166.663 304.091C164.184 305.164 166.017 318.592 162.938 320.851C159.859 323.111 151.741 313.567 155.767 303.397C158.859 295.587 158.286 291.775 154.514 289.875C151.308 288.256 149.995 301.738 143.584 299.079C137.18 296.426 142.178 283.131 143.158 280.672C144.137 278.213 143.918 274.821 139.172 276.24C134.427 277.66 134.467 294.674 128.523 281.192C125.95 275.367 128.689 264.904 136.487 255.254C139.206 251.888 142.778 249.303 146.83 247.776C155.274 244.598 170.748 239.419 175.373 243.405C182.858 249.842 172.581 247.943 170.382 252.382Z" fill="#97CBFF"/>
<path d="M197.386 319.219C197.386 319.219 169.855 266.15 142.491 249.916" stroke="white" stroke-width="1.0894" stroke-miterlimit="10" stroke-linecap="round" stroke-linejoin="round"/>
<path d="M11.8359 469.134L3.4254 466.635L3.47206 464.496L0.646363 464.682L0.626371 465.795L0.0532227 492.086L13.5886 491.193L11.8359 469.134Z" fill="#729CE3"/>
<path d="M167.936 469.088L167.983 466.982L98.8795 435.666C98.4863 435.486 97.9932 435.519 97.5866 435.752L0.713074 491.26C0.359862 491.466 0.153278 491.766 0.0799694 492.086H0.0533062L0 494.599L0.0533062 494.592C0.106621 494.905 0.273242 495.199 0.626454 495.352L69.7295 526.668C70.1227 526.848 70.6159 526.814 71.0224 526.581L167.896 471.073L167.936 469.187C168.009 469.154 168.016 469.121 167.936 469.088Z" fill="#729CE3"/>
<path d="M7.03081 466.455L6.92418 471.387L6.61762 485.482L6.51099 490.414L70.1292 519.963L71.0889 492.26L7.03081 466.455Z" fill="#E6F0FF"/>
<path d="M71.0887 492.26L70.1357 519.963L159.792 469.441C160.698 468.921 160.978 467.415 160.978 466.495L160.951 458.491L161.078 452.786L161.531 440.93L71.0887 492.26Z" fill="#D8E3F0"/>
<path d="M166.93 440.877L99.4328 410.294C99.0396 410.114 98.5464 410.148 98.1399 410.381L1.26634 465.889C0.393308 466.388 0.373317 467.495 1.22636 467.881L70.3294 499.197C70.7226 499.377 71.2158 499.344 71.6223 499.111L169.142 443.223L169.202 440.504L166.93 440.877Z" fill="#729CE3"/>
<path d="M70.3692 497.078L1.26614 465.762C0.413101 465.375 0.439757 464.269 1.30613 463.769L98.1797 408.262C98.5862 408.028 99.0794 407.995 99.4726 408.175L168.576 439.491C169.429 439.877 169.402 440.984 168.529 441.484L71.6554 496.991C71.2622 497.225 70.769 497.258 70.3692 497.078Z" fill="url(#paint0_linear)"/>
<path d="M116.3 446.848L89.2695 434.599C86.6637 433.42 87.0502 431.007 90.1292 429.248L99.0928 424.116C102.172 422.35 106.817 421.877 109.423 423.057L136.453 435.306C139.059 436.485 138.673 438.898 135.594 440.657L126.63 445.789C123.551 447.548 118.906 448.028 116.3 446.848Z" fill="white"/>
<path opacity="0.29" d="M219.618 495.685C218.625 491.846 214.093 490 209.495 491.567C209.442 491.587 209.388 491.607 209.335 491.627V491.62L203.197 493.712C202.691 493.772 202.171 493.899 201.624 494.092C201.571 494.112 201.518 494.132 201.464 494.152V494.146L194.114 496.691C194.134 496.685 194.154 496.685 194.167 496.678L125.55 520.09C125.337 520.123 125.124 520.15 124.917 520.237L116.227 528.367L108.196 535.112L120.659 534.325L130.282 533.952C130.662 533.699 130.969 533.386 131.235 533.052L131.402 533.392L196.993 511.167C196.973 511.173 196.953 511.187 196.926 511.193C196.873 511.213 196.819 511.226 196.759 511.246V511.253L205.19 508.394L205.35 508.341C205.896 508.148 206.389 507.901 206.836 507.621L212.941 505.542V505.535C212.994 505.515 213.047 505.502 213.107 505.482C217.699 503.902 220.618 499.524 219.618 495.685Z" fill="#A8C4E5"/>
<path d="M204.543 487.115C204.49 487.135 204.437 487.155 204.384 487.175V487.168L187.909 492.773C183.317 494.339 180.398 498.717 181.391 502.556C182.384 506.395 186.923 508.241 191.515 506.675L207.989 501.07V501.063C208.042 501.043 208.096 501.03 208.156 501.01C212.747 499.444 215.666 495.065 214.673 491.227C213.674 487.401 209.142 485.555 204.543 487.115Z" fill="#FF80AE"/>
<path d="M200.398 503.876L126.443 528.934L122.738 521.57L203.857 493.846L200.398 503.876Z" fill="#3A5EBA"/>
<path d="M122.738 521.57C122.498 517.951 119.173 520.317 120.586 515.645L192.314 491.173C198.932 490.494 203.764 491.22 203.857 493.846L122.738 521.57Z" fill="#6080D1"/>
<path d="M196.666 489.641C196.613 489.661 196.56 489.681 196.506 489.701V489.694L189.156 492.24C195.113 490.44 200.485 503.489 191.975 506.735C191.921 506.755 191.868 506.768 191.808 506.788V506.795L200.238 503.936V503.929C200.292 503.909 200.345 503.896 200.405 503.876C208.882 500.843 205.223 486.582 196.666 489.641Z" fill="white"/>
<path d="M119.959 515.785L104.424 530.307L125.324 529.494C130.555 525.988 124.731 513.839 119.959 515.785Z" fill="white"/>
<path d="M103.238 530.653L111.269 523.909C111.269 523.909 112.348 523.216 113.175 524.875C114.001 526.541 114.894 525.342 115.534 527.314C116.18 529.287 115.7 529.86 115.7 529.86L103.238 530.653Z" fill="#173891"/>
<path opacity="0.52" d="M271.214 534.219C271.28 534.332 271.36 534.445 271.454 534.552C272.573 535.831 275.612 536.538 279.718 535.511C279.804 535.491 282.05 534.925 285.669 534.132C285.935 534.285 286.215 534.432 286.502 534.585C312.326 548.127 333.313 530.98 333.313 530.98L333.919 531.226L335.805 531.993L336.412 532.239C336.412 532.239 316.185 548.107 342.17 557.464C347.321 559.317 352.306 559.95 356.998 559.79C356.025 564.442 354.592 567.854 354.552 567.94C354.099 569.04 354.299 569.933 354.912 570.593C355.752 571.492 357.364 571.972 359.157 571.999C362.083 572.039 365.808 570.839 367.548 568.04C369.8 564.168 371.173 560.383 371.666 556.711C377.737 554.385 382.656 551.213 385.875 548.807C388.374 546.934 388.707 543.669 386.568 541.969C384.975 540.703 382.749 539.184 379.743 537.597C374.945 534.725 367.161 530.846 356.318 527.861C354.819 527.448 353.306 527.061 351.793 526.694C351.426 526.475 351.06 526.261 350.68 526.048C342.19 521.223 332.773 517.844 326.062 515.791C314.219 509.62 301.883 507.708 297.432 507.188C296.312 507.054 295.132 507.294 294.086 507.868C289.214 510.533 275.272 519.057 278.858 527.587C278.131 527.794 277.405 528.001 276.685 528.221C272.094 529.673 270.401 532.819 271.214 534.219ZM284.616 523.769C284.623 524.275 284.656 524.788 284.703 525.288C284.596 524.782 284.569 524.275 284.616 523.769Z" fill="#A8C4E5"/>
<path d="M362.249 565.148C367.514 556.091 368.061 547.527 363.882 539.677C360.557 533.426 354.232 527.627 345.095 522.436C329.581 513.619 311.02 509.554 310.834 509.514L309.454 510.76C309.661 510.847 330.22 519.33 347.215 534.858C357.698 544.435 349.127 564.835 349.034 565.048C348.574 566.168 348.774 567.074 349.4 567.747C350.253 568.667 351.9 569.153 353.719 569.18C356.691 569.22 360.477 567.994 362.249 565.148Z" fill="#2F4C9C"/>
<path d="M350.827 524.282C339.151 521.07 327.088 519.344 314.966 519.164C299.751 518.937 284.882 520.05 269.834 524.648C265.163 526.135 263.443 529.334 264.276 530.753C264.343 530.866 264.423 530.98 264.523 531.093C265.662 532.393 268.755 533.112 272.927 532.066C273.273 531.979 307.928 523.216 327.874 526.081C360.19 530.726 380.683 538.684 380.883 538.764L380.55 538.217C380.43 538.137 370.646 529.74 350.827 524.282Z" fill="#2F4C9C"/>
<path d="M279.011 534.092C305.276 547.867 326.615 530.426 326.615 530.426L327.235 530.68L329.154 531.459L329.774 531.713C329.774 531.713 309.208 547.854 335.632 557.364C355.152 564.388 372.399 554.312 380.083 548.56C381.17 547.747 381.849 546.674 382.109 545.575L382.116 545.568L382.889 542.716L381.916 543.082C381.676 542.529 381.303 542.023 380.783 541.609C375.205 537.177 362.083 529.693 334.979 526.848L334.819 526.781C320.564 510.807 296.752 507.001 290.134 506.228C288.994 506.095 287.795 506.335 286.729 506.915C280.397 510.38 258.978 523.582 279.011 534.092ZM334.006 535.345L337.238 533.092C338.438 532.259 339.904 531.879 341.277 532.053C357.444 534.112 366.648 538.504 371.486 541.763C374.219 543.602 373.592 547.661 370.287 549.42C363.362 553.112 351.12 557.657 338.244 553.019C318.584 545.955 334.006 535.345 334.006 535.345ZM287.615 511.58C288.741 510.9 290.047 510.607 291.287 510.76C296.185 511.366 309.661 513.706 319.944 521.736C322.363 523.629 321.75 527.368 318.704 529.134C318.704 529.134 301.737 539.11 283.81 530.926C268.995 524.162 282.483 514.672 287.615 511.58Z" fill="#2F4C9C"/>
<path opacity="0.65" d="M326.975 521.25C326.975 521.25 323.649 531.819 311.1 533.139C298.551 534.452 281.97 533.359 279.091 526.268C276.212 519.177 278.658 508.854 285.149 506.128C291.627 503.409 320.93 509.3 326.975 521.25Z" fill="#E3F2FF"/>
<path opacity="0.65" d="M376.851 541.429C376.851 541.429 373.526 551.999 360.977 553.319C348.428 554.632 331.847 553.539 328.968 546.448C326.089 539.357 328.534 529.034 335.026 526.308C341.503 523.589 370.8 529.487 376.851 541.429Z" fill="#E3F2FF"/>
<path d="M339.057 550.06C319.397 542.982 334.812 532.373 334.812 532.373L338.044 530.12C339.244 529.287 340.71 528.907 342.083 529.08C358.251 531.14 367.454 535.531 372.293 538.79C375.025 540.63 374.399 544.688 371.093 546.448C364.169 550.153 351.926 554.698 339.057 550.06ZM284.609 527.954C269.794 521.19 283.29 511.7 288.421 508.607C289.548 507.928 290.854 507.634 292.093 507.788C296.992 508.394 310.467 510.733 320.75 518.764C323.169 520.657 322.556 524.395 319.511 526.161C319.504 526.161 302.537 536.138 284.609 527.954ZM335.778 523.875L335.619 523.809C321.363 507.834 297.552 504.029 290.934 503.256C289.794 503.123 288.595 503.362 287.528 503.942C281.197 507.408 259.784 520.61 279.818 531.12C306.082 544.895 327.421 527.454 327.421 527.454L328.041 527.707L329.96 528.487L330.58 528.74C330.58 528.74 310.014 544.882 336.438 554.392C355.958 561.416 373.206 551.339 380.89 545.588C383.436 543.682 383.769 540.363 381.589 538.63C376.011 534.199 362.883 526.714 335.778 523.875Z" fill="#69A5ED"/>
<path d="M374.092 545.648C374.092 545.648 376.551 542.782 375.505 540.443C374.459 538.097 368.514 535.372 364.982 533.979" stroke="white" stroke-width="0.583" stroke-miterlimit="10" stroke-linecap="round" stroke-linejoin="round"/>
<path d="M322.936 524.742C322.936 524.742 325.395 521.876 324.349 519.537C323.303 517.191 317.358 514.465 313.826 513.072" stroke="white" stroke-width="0.583" stroke-miterlimit="10" stroke-linecap="round" stroke-linejoin="round"/>
<path d="M362.836 547.167C363.156 547.061 363.363 546.748 363.289 546.461L360.877 537.178C360.803 536.898 360.477 536.751 360.157 536.858C359.837 536.964 359.63 537.278 359.704 537.564L362.116 546.848C362.183 547.127 362.509 547.274 362.836 547.167Z" fill="white"/>
<path d="M359.037 547.401C359.191 547.354 359.29 547.201 359.25 547.067L356.705 537.237C356.671 537.104 356.518 537.031 356.365 537.084C356.212 537.131 356.112 537.284 356.152 537.417L358.704 547.241C358.731 547.381 358.884 547.447 359.037 547.401Z" fill="white"/>
<path d="M312.373 527.168C312.693 527.061 312.9 526.748 312.826 526.461L310.414 517.178C310.34 516.898 310.014 516.751 309.694 516.858C309.374 516.964 309.168 517.278 309.241 517.564L311.653 526.841C311.727 527.128 312.047 527.268 312.373 527.168Z" fill="white"/>
<path d="M308.575 527.394C308.728 527.348 308.828 527.194 308.788 527.061L306.235 517.238C306.202 517.104 306.049 517.031 305.895 517.084C305.742 517.131 305.642 517.284 305.682 517.418L308.235 527.241C308.268 527.374 308.421 527.441 308.575 527.394Z" fill="white"/>
<path opacity="0.39" d="M381.75 453.919C368.887 446.735 347.828 446.409 334.712 453.193C321.597 459.977 321.397 471.293 334.259 478.478C347.122 485.662 367.948 485.995 381.303 479.351C395.992 472.04 394.612 461.097 381.75 453.919Z" fill="#A7BCF5"/>
<path d="M371.133 452.333C358.917 445.509 338.917 445.202 326.462 451.64C314.006 458.078 313.819 468.834 326.035 475.652C338.251 482.476 358.031 482.789 370.713 476.478C384.662 469.547 383.349 459.158 371.133 452.333Z" fill="#EDBA00"/>
<path d="M370.707 445.262C358.491 438.438 338.491 438.131 326.035 444.569C313.579 451.007 313.393 461.763 325.609 468.581C337.824 475.405 357.604 475.719 370.287 469.407C384.235 462.476 382.922 452.08 370.707 445.262Z" fill="#FFD22D"/>
<path d="M341.856 448.514L338.338 459.771L366.841 453.766" stroke="white" stroke-width="9.1697" stroke-miterlimit="10" stroke-linecap="round" stroke-linejoin="round"/>
<path d="M619.049 366.789C602.807 367.056 587.619 365.056 575.797 355.86L579.395 327.336C592.238 336.666 606.713 340.105 622.647 338.266L619.049 366.789Z" fill="#FFD252"/>
<path d="M624.16 329.209C606.326 325.143 591.804 317.926 582.847 305.377L586.446 276.853C595.596 289.822 609.225 297.919 627.759 300.685L624.16 329.209Z" fill="#EBF5FF"/>
<defs>
<linearGradient id="paint0_linear" x1="0.789215" y1="458.158" x2="168.743" y2="461.802" gradientUnits="userSpaceOnUse">
<stop offset="0.0531" stop-color="#BAD4FF"/>
<stop offset="0.4777" stop-color="#94CEFF"/>
<stop offset="0.6844" stop-color="#9EC2FF"/>
<stop offset="1" stop-color="#85AAFF"/>
</linearGradient>
</defs>
</svg>
