<svg width="58" height="20" viewBox="0 0 58 20" fill="none" xmlns="http://www.w3.org/2000/svg">
    <path d="M18.1753 0H25.3289L28.9526 5.97989L32.4475 0H39.5329L32.0526 12.7991V20H25.9474V12.8256L18.1753 0ZM48.0789 19.9955C42.5997 19.9955 38.1579 15.5194 38.1579 9.99775C38.1579 4.47614 42.5997 0 48.0789 0C53.5582 0 58 4.47614 58 9.99775C58 15.5194 53.5582 19.9955 48.0789 19.9955ZM48.0789 13.843C50.1864 13.843 51.8947 12.1214 51.8947 9.99775C51.8947 7.87405 50.1864 6.15246 48.0789 6.15246C45.9715 6.15246 44.2632 7.87405 44.2632 9.99775C44.2632 12.1214 45.9715 13.843 48.0789 13.843ZM9.92105 19.9955C4.44181 19.9955 0 15.5194 0 9.99775C0 4.47614 4.44181 0 9.92105 0C15.4003 0 19.8421 4.47614 19.8421 9.99775C19.8421 15.5194 15.4003 19.9955 9.92105 19.9955ZM9.92105 13.843C12.0285 13.843 13.7368 12.1214 13.7368 9.99775C13.7368 7.87405 12.0285 6.15246 9.92105 6.15246C7.81365 6.15246 6.10526 7.87405 6.10526 9.99775C6.10526 12.1214 7.81365 13.843 9.92105 13.843Z" fill="#EE2A24"/>
</svg>