<svg width="56" height="56" viewBox="0 0 56 56" fill="none" xmlns="http://www.w3.org/2000/svg">
<path fill-rule="evenodd" clip-rule="evenodd" d="M13.7558 3.17293L12 2L10.2442 3.17293L8.17317 2.7612L6.99987 4.51677L4.92893 4.92893L4.51677 6.99987L2.7612 8.17317L3.17293 10.2442L2 12L3.17293 13.7558L2.7612 15.8268L4.51677 17.0001L4.92893 19.0711L6.99987 19.4832L8.17317 21.2388L10.2442 20.8271L12 22L13.7558 20.8271L15.8268 21.2388L17.0001 19.4832L19.0711 19.0711L19.4832 17.0001L21.2388 15.8268L20.8271 13.7558L22 12L20.8271 10.2442L21.2388 8.17317L19.4832 6.99987L19.0711 4.92893L17.0001 4.51677L15.8268 2.7612L13.7558 3.17293ZM16.7071 7.29289C17.0976 7.68341 17.0976 8.31658 16.7071 8.7071L13.4142 12L16.7071 15.2929C17.0976 15.6834 17.0976 16.3166 16.7071 16.7071C16.3166 17.0976 15.6834 17.0976 15.2929 16.7071L12 13.4142L8.70711 16.7071C8.31658 17.0976 7.68342 17.0976 7.29289 16.7071C6.90237 16.3166 6.90237 15.6834 7.29289 15.2929L10.5858 12L7.2929 8.7071C6.90237 8.31658 6.90237 7.68341 7.2929 7.29289C7.68342 6.90237 8.31658 6.90237 8.70711 7.29289L12 10.5858L15.2929 7.29289C15.6834 6.90237 16.3166 6.90237 16.7071 7.29289Z" fill="#CC1414"/>
</svg>
