<svg width="56" height="56" viewBox="0 0 56 56" fill="none" xmlns="http://www.w3.org/2000/svg">
<path fill-rule="evenodd" clip-rule="evenodd" d="M32.0969 7.40335L28 4.6665L23.9031 7.40335L19.0707 6.44265L16.333 10.539L11.5008 11.5007L10.5391 16.3329L6.44282 19.0706L7.40351 23.9029L4.66667 27.9998L7.40351 32.0967L6.44282 36.9291L10.5391 39.6668L11.5008 44.499L16.333 45.4607L19.0707 49.557L23.9031 48.5963L28 51.3332L32.0969 48.5963L36.9293 49.557L39.667 45.4607L44.4992 44.499L45.4609 39.6668L49.5572 36.9291L48.5965 32.0967L51.3333 27.9998L48.5965 23.9029L49.5572 19.0706L45.4609 16.3329L44.4992 11.5007L39.667 10.539L36.9293 6.44265L32.0969 7.40335ZM40.2479 24.1469C40.6973 23.8259 40.8014 23.2013 40.4804 22.7519C40.1594 22.3025 39.5348 22.1984 39.0854 22.5194L23.5925 33.5858L19.4987 27.4451C19.1924 26.9856 18.5715 26.8614 18.112 27.1678C17.6524 27.4741 17.5283 28.095 17.8346 28.5545L22.5013 35.5545C22.6515 35.7799 22.8867 35.9346 23.1531 35.9835C23.4194 36.0323 23.6942 35.971 23.9146 35.8136L40.2479 24.1469Z" fill="#00B28A"/>
</svg>
