<svg width="16" height="24" viewBox="0 0 16 24" fill="none" xmlns="http://www.w3.org/2000/svg">
<path d="M11.3334 6.00004C11.5085 5.82494 11.7163 5.68605 11.9451 5.59129C12.1739 5.49653 12.4191 5.44775 12.6667 5.44775C12.9143 5.44775 13.1595 5.49653 13.3883 5.59129C13.6171 5.68605 13.8249 5.82494 14 6.00004C14.1751 6.17513 14.314 6.383 14.4088 6.61178C14.5036 6.84055 14.5523 7.08575 14.5523 7.33337C14.5523 7.58099 14.5036 7.82619 14.4088 8.05497C14.314 8.28374 14.1751 8.49161 14 8.66671L5.00004 17.6667L1.33337 18.6667L2.33337 15L11.3334 6.00004Z" stroke="#2298DA" stroke-linecap="round" stroke-linejoin="round"/>
</svg>
