<svg width="16" height="24" viewBox="0 0 16 24" fill="none" xmlns="http://www.w3.org/2000/svg">
<path d="M1.33334 12L1.10974 11.5528C0.940345 11.6375 0.833344 11.8106 0.833344 12C0.833344 12.1894 0.940345 12.3625 1.10974 12.4472L1.33334 12ZM8.00001 15.3333L7.7764 15.7806C7.91717 15.8509 8.08285 15.8509 8.22362 15.7806L8.00001 15.3333ZM14.6667 12L14.8903 12.4472C15.0597 12.3625 15.1667 12.1894 15.1667 12C15.1667 11.8106 15.0597 11.6375 14.8903 11.5528L14.6667 12ZM5.55695 10.4472C5.80394 10.3237 5.90405 10.0234 5.78056 9.7764C5.65706 9.52941 5.35673 9.4293 5.10974 9.5528L5.55695 10.4472ZM10.8903 9.5528C10.6433 9.4293 10.343 9.52941 10.2195 9.7764C10.096 10.0234 10.1961 10.3237 10.4431 10.4472L10.8903 9.5528ZM1.55695 14.8861C1.30996 14.7626 1.00962 14.8627 0.88613 15.1097C0.762635 15.3567 0.862747 15.6571 1.10974 15.7806L1.55695 14.8861ZM8.00001 18.6667L7.7764 19.1139C7.91717 19.1843 8.08285 19.1843 8.22362 19.1139L8.00001 18.6667ZM14.8903 15.7806C15.1373 15.6571 15.2374 15.3567 15.1139 15.1097C14.9904 14.8627 14.6901 14.7626 14.4431 14.8861L14.8903 15.7806ZM5.64646 6.97979C5.45119 7.17505 5.45119 7.49163 5.64646 7.6869C5.84172 7.88216 6.1583 7.88216 6.35356 7.6869L5.64646 6.97979ZM8.00001 5.33334L8.35356 4.97979C8.1583 4.78453 7.84172 4.78453 7.64646 4.97979L8.00001 5.33334ZM9.64646 7.6869C9.84172 7.88216 10.1583 7.88216 10.3536 7.6869C10.5488 7.49163 10.5488 7.17505 10.3536 6.97979L9.64646 7.6869ZM7.50001 12C7.50001 12.2762 7.72387 12.5 8.00001 12.5C8.27615 12.5 8.50001 12.2762 8.50001 12H7.50001ZM1.10974 12.4472L7.7764 15.7806L8.22362 14.8861L1.55695 11.5528L1.10974 12.4472ZM8.22362 15.7806L14.8903 12.4472L14.4431 11.5528L7.7764 14.8861L8.22362 15.7806ZM5.10974 9.5528L1.10974 11.5528L1.55695 12.4472L5.55695 10.4472L5.10974 9.5528ZM14.8903 11.5528L10.8903 9.5528L10.4431 10.4472L14.4431 12.4472L14.8903 11.5528ZM1.10974 15.7806L7.7764 19.1139L8.22362 18.2195L1.55695 14.8861L1.10974 15.7806ZM8.22362 19.1139L14.8903 15.7806L14.4431 14.8861L7.7764 18.2195L8.22362 19.1139ZM6.35356 7.6869L8.35356 5.6869L7.64646 4.97979L5.64646 6.97979L6.35356 7.6869ZM7.64646 5.6869L9.64646 7.6869L10.3536 6.97979L8.35356 4.97979L7.64646 5.6869ZM7.50001 5.33334V12H8.50001V5.33334H7.50001Z" fill="#2298DA"/>
</svg>
