<svg width="24" height="24" viewBox="0 0 24 24" fill="none" xmlns="http://www.w3.org/2000/svg">
<path fill-rule="evenodd" clip-rule="evenodd" d="M5 3H19C20.11 3 21 3.9 21 5V19C21 20.1 20.11 21 19 21H5C3.89 21 3 20.1 3 19V5C3 3.9 3.89 3 5 3ZM16.6839 10.7295C17.0869 10.3518 17.1073 9.71897 16.7295 9.31606C16.3518 8.91315 15.719 8.89274 15.3161 9.27047L10.6667 13.6293L8.68394 11.7705C8.28103 11.3927 7.6482 11.4131 7.27047 11.8161C6.89274 12.219 6.91315 12.8518 7.31606 13.2295L9.98273 15.7295C10.3674 16.0902 10.966 16.0902 11.3506 15.7295L16.6839 10.7295Z" fill="#2298DA"/>
</svg>
