<svg width="16" height="24" viewBox="0 0 16 24" fill="none" xmlns="http://www.w3.org/2000/svg">
<path d="M11.3334 6.00001C11.5085 5.82491 11.7163 5.68602 11.9451 5.59126C12.1739 5.4965 12.4191 5.44772 12.6667 5.44772C12.9143 5.44772 13.1595 5.4965 13.3883 5.59126C13.6171 5.68602 13.8249 5.82491 14 6.00001C14.1751 6.1751 14.314 6.38297 14.4088 6.61175C14.5036 6.84052 14.5523 7.08572 14.5523 7.33334C14.5523 7.58096 14.5036 7.82616 14.4088 8.05494C14.314 8.28371 14.1751 8.49158 14 8.66667L5.00004 17.6667L1.33337 18.6667L2.33337 15L11.3334 6.00001Z" stroke="white" stroke-linecap="round" stroke-linejoin="round"/>
</svg>
