<svg width="24" height="24" viewBox="0 0 24 24" fill="none" xmlns="http://www.w3.org/2000/svg">
<path d="M5 18V4C5 2.89543 5.89543 2 7 2H17C18.1046 2 19 2.89543 19 4V18M5 18C5 19.1046 5.89543 20 7 20H17C18.1046 20 19 19.1046 19 18M5 18V16H19V18M16 10C16 12.2091 14.2091 14 12 14C9.79086 14 8 12.2091 8 10M16 10C16 7.79086 14.2091 6 12 6C9.79086 6 8 7.79086 8 10M16 10H8M8.5 8H15.5M8.5 12H15.5M7.5 20.5V21.5M16.5 20.5V21.5M15 2H9C9 3.10457 9.89543 4 11 4H13C14.1046 4 15 3.10457 15 2Z" stroke="black" stroke-linecap="round" stroke-linejoin="round"/>
</svg>
