<svg width="24" height="24" viewBox="0 0 24 24" fill="none" xmlns="http://www.w3.org/2000/svg">
<line x1="6.5" y1="4" x2="6.5" y2="20" stroke="#1ACD0E" stroke-dasharray="1 1"/>
<path d="M22 9.5H22.5C22.5 9.22386 22.2761 9 22 9V9.5ZM22 14.5V15C22.2761 15 22.5 14.7761 22.5 14.5H22ZM17 11.5C16.7239 11.5 16.5 11.7239 16.5 12C16.5 12.2761 16.7239 12.5 17 12.5V11.5ZM17.01 12.5C17.2861 12.5 17.51 12.2761 17.51 12C17.51 11.7239 17.2861 11.5 17.01 11.5V12.5ZM4 4.5H20V3.5H4V4.5ZM21.5 6V18H22.5V6H21.5ZM20 19.5H4V20.5H20V19.5ZM2.5 18V6H1.5V18H2.5ZM4 19.5C3.17157 19.5 2.5 18.8284 2.5 18H1.5C1.5 19.3807 2.61929 20.5 4 20.5V19.5ZM21.5 18C21.5 18.8284 20.8284 19.5 20 19.5V20.5C21.3807 20.5 22.5 19.3807 22.5 18H21.5ZM20 4.5C20.8284 4.5 21.5 5.17157 21.5 6H22.5C22.5 4.61929 21.3807 3.5 20 3.5V4.5ZM4 3.5C2.61929 3.5 1.5 4.61929 1.5 6H2.5C2.5 5.17157 3.17157 4.5 4 4.5V3.5ZM16.5 10H22V9H16.5V10ZM21.5 9.5V14.5H22.5V9.5H21.5ZM22 14H16.5V15H22V14ZM16.5 14C15.3954 14 14.5 13.1046 14.5 12H13.5C13.5 13.6569 14.8431 15 16.5 15V14ZM16.5 9C14.8431 9 13.5 10.3431 13.5 12H14.5C14.5 10.8954 15.3954 10 16.5 10V9ZM17 12.5H17.01V11.5H17V12.5Z" fill="#1ACD0E"/>
</svg>
