<svg width="24" height="24" viewBox="0 0 24 24" fill="none" xmlns="http://www.w3.org/2000/svg">
<path d="M16 4H18C18.5304 4 19.0391 4.21071 19.4142 4.58579C19.7893 4.96086 20 5.46957 20 6V6.5M8 4H6C5.46957 4 4.96086 4.21071 4.58579 4.58579C4.21071 4.96086 4 5.46957 4 6V20C4 20.5304 4.21071 21.0391 4.58579 21.4142C4.96086 21.7893 5.46957 22 6 22H18C18.5304 22 19.0391 21.7893 19.4142 21.4142C19.7893 21.0391 20 20.5304 20 20V11.5M9 2H15C15.5523 2 16 2.44772 16 3V5C16 5.55228 15.5523 6 15 6H9C8.44772 6 8 5.55228 8 5V3C8 2.44772 8.44772 2 9 2ZM19.9167 6.75C20.0699 6.59679 20.2518 6.47526 20.4519 6.39234C20.6521 6.30943 20.8667 6.26675 21.0833 6.26675C21.3 6.26675 21.5145 6.30943 21.7147 6.39234C21.9149 6.47526 22.0968 6.59679 22.25 6.75C22.4032 6.90321 22.5247 7.08509 22.6076 7.28527C22.6906 7.48545 22.7332 7.7 22.7332 7.91667C22.7332 8.13334 22.6906 8.34788 22.6076 8.54806C22.5247 8.74824 22.4032 8.93012 22.25 9.08333L14.375 16.9583L11.1667 17.8333L12.0417 14.625L19.9167 6.75Z" stroke="#1ACD0E" stroke-linecap="round" stroke-linejoin="round"/>
</svg>
