<svg width="20" height="21" viewBox="0 0 20 21" fill="none" xmlns="http://www.w3.org/2000/svg">
<path d="M11.73 19.5C11.5542 19.8031 11.3018 20.0547 10.9982 20.2295C10.6946 20.4044 10.3504 20.4965 10 20.4965C9.64962 20.4965 9.30539 20.4044 9.00177 20.2295C8.69816 20.0547 8.44581 19.8031 8.27 19.5M16 6.5C16 4.9087 15.3679 3.38258 14.2426 2.25736C13.1174 1.13214 11.5913 0.5 10 0.5C8.4087 0.5 6.88258 1.13214 5.75736 2.25736C4.63214 3.38258 4 4.9087 4 6.5C4 13.5 1 15.5 1 15.5H19C19 15.5 16 13.5 16 6.5Z" stroke="#212121" stroke-linecap="round" stroke-linejoin="round"/>
</svg>
