<svg width="32" height="32" viewBox="0 0 32 32" fill="none" xmlns="http://www.w3.org/2000/svg">
<path d="M18 20L14 16L18 12" stroke="#212121" stroke-linecap="round" stroke-linejoin="round"/>
<path d="M28 1H4V-1H28V1ZM1 4V28H-1V4H1ZM4 31H28V33H4V31ZM31 28V4H33V28H31ZM28 31C29.6569 31 31 29.6569 31 28H33C33 30.7614 30.7614 33 28 33V31ZM1 28C1 29.6569 2.34315 31 4 31V33C1.23858 33 -1 30.7614 -1 28H1ZM4 1C2.34315 1 1 2.34315 1 4H-1C-1 1.23858 1.23858 -1 4 -1V1ZM28 -1C30.7614 -1 33 1.23858 33 4H31C31 2.34315 29.6569 1 28 1V-1Z" fill="black" fill-opacity="0.12"/>
</svg>
