<svg width="24" height="24" viewBox="0 0 24 24" fill="none" xmlns="http://www.w3.org/2000/svg">
<path d="M8.99625 6L13.2412 10.1017C14.0808 10.9124 14.6526 11.9454 14.8844 13.0701C15.1163 14.1948 14.9977 15.3607 14.5437 16.4202C14.0896 17.4798 13.3206 18.3855 12.3338 19.0227C11.347 19.6599 10.1869 20 9 20C7.81315 20 6.65295 19.6599 5.66617 19.0227C4.67939 18.3855 3.91036 17.4798 3.45635 16.4202C3.00234 15.3607 2.88375 14.1948 3.11558 13.0701C3.34741 11.9454 3.91924 10.9124 4.75875 10.1017L8.99625 6Z" stroke="#1ACD0E" stroke-linecap="round" stroke-linejoin="round"/>
<path d="M18 13C19.1046 13 20 12.1046 20 11C20 12.1046 20.8954 13 22 13C20.8954 13 20 13.8954 20 15C20 13.8954 19.1046 13 18 13Z" stroke="#1ACD0E" stroke-linecap="round" stroke-linejoin="round"/>
<path d="M14 5C15.6569 5 17 3.65685 17 2C17 3.65685 18.3431 5 20 5C18.3431 5 17 6.34315 17 8C17 6.34315 15.6569 5 14 5Z" stroke="#1ACD0E" stroke-linecap="round" stroke-linejoin="round"/>
</svg>
