<svg width="20" height="20" viewBox="0 0 20 20" fill="none" xmlns="http://www.w3.org/2000/svg">
<path fill-rule="evenodd" clip-rule="evenodd" d="M11.4635 2.64411L10.0003 1.66666L8.53715 2.64411L6.8113 2.301L5.83355 3.76398L4.10777 4.10744L3.7643 5.83322L2.30133 6.81097L2.64444 8.53682L1.66699 10L2.64444 11.4632L2.30133 13.189L3.7643 14.1668L4.10777 15.8926L5.83355 16.236L6.8113 17.699L8.53715 17.3559L10.0003 18.3333L11.4635 17.3559L13.1894 17.699L14.1671 16.236L15.8929 15.8926L16.2363 14.1668L17.6993 13.189L17.3562 11.4632L18.3337 10L17.3562 8.53682L17.6993 6.81097L16.2363 5.83322L15.8929 4.10744L14.1671 3.76398L13.1894 2.301L11.4635 2.64411ZM14.7482 9.14706C15.1976 8.82605 15.3017 8.2015 14.9807 7.75209C14.6597 7.30268 14.0352 7.19859 13.5858 7.5196L8.59283 11.086L7.49904 9.4453C7.19269 8.98577 6.57182 8.86159 6.11229 9.16795C5.65276 9.4743 5.52859 10.0952 5.83494 10.5547L7.50161 13.0547C7.65183 13.28 7.88701 13.4348 8.15338 13.4836C8.41975 13.5324 8.69453 13.4711 8.9149 13.3137L14.7482 9.14706Z" fill="#00B28A"/>
</svg>
