<svg width="17" height="24" viewBox="0 0 17 24" fill="none" xmlns="http://www.w3.org/2000/svg">
<path fill-rule="evenodd" clip-rule="evenodd" d="M9.67054 6.11545L8.5 5.3335L7.32946 6.11545L5.94878 5.84097L5.16658 7.01135L3.78596 7.28612L3.51119 8.66674L2.34081 9.44894L2.61529 10.8296L1.83334 12.0002L2.61529 13.1707L2.34081 14.5514L3.51119 15.3336L3.78596 16.7142L5.16658 16.989L5.94878 18.1594L7.32946 17.8849L8.5 18.6668L9.67054 17.8849L11.0512 18.1594L11.8334 16.989L13.214 16.7142L13.4888 15.3336L14.6592 14.5514L14.3847 13.1707L15.1667 12.0002L14.3847 10.8296L14.6592 9.44894L13.4888 8.66674L13.214 7.28612L11.8334 7.01135L11.0512 5.84097L9.67054 6.11545ZM12.4146 11.4806C12.864 11.1596 12.9681 10.535 12.6471 10.0856C12.3261 9.63618 11.7015 9.53209 11.2521 9.8531L7.42584 12.5861L6.66539 11.4455C6.35903 10.9859 5.73816 10.8618 5.27864 11.1681C4.81911 11.4745 4.69493 12.0953 5.00129 12.5549L6.33462 14.5549C6.48484 14.7802 6.72002 14.935 6.98639 14.9838C7.25276 15.0326 7.52754 14.9713 7.74791 14.8139L12.4146 11.4806Z" fill="#00B28A"/>
</svg>
