<svg width="24" height="24" viewBox="0 0 24 24" fill="none" xmlns="http://www.w3.org/2000/svg">
<path d="M1 15.3401C3.75 15.3401 3.75 17.3401 6.49 17.3401C9.24 17.3401 9.24 15.3401 11.99 15.3401C14.74 15.3401 14.74 17.3401 17.49 17.3401C20.24 17.3401 20.24 15.3401 22.99 15.3401" stroke="#C25ADC" stroke-miterlimit="10" stroke-linecap="round" stroke-linejoin="round"/>
<path d="M1 19.5701C3.75 19.5701 3.75 21.5701 6.49 21.5701C9.24 21.5701 9.24 19.5701 11.99 19.5701C14.74 19.5701 14.74 21.5701 17.49 21.5701C20.24 21.5701 20.24 19.5701 22.99 19.5701" stroke="#C25ADC" stroke-miterlimit="10" stroke-linecap="round" stroke-linejoin="round"/>
<path d="M11.69 3.43005C10.15 3.43005 8.90002 4.68005 8.90002 6.22005V6.20005V12.7101" stroke="#C25ADC" stroke-miterlimit="10" stroke-linecap="round" stroke-linejoin="round"/>
<path d="M17.63 3.43005C16.09 3.43005 14.84 4.68005 14.84 6.22005V6.20005V12.7101" stroke="#C25ADC" stroke-miterlimit="10" stroke-linecap="round" stroke-linejoin="round"/>
<path d="M8.90002 8.58008H14.84" stroke="#C25ADC" stroke-miterlimit="10" stroke-linecap="round" stroke-linejoin="round"/>
</svg>
