<svg width="24" height="24" viewBox="0 0 24 24" fill="none" xmlns="http://www.w3.org/2000/svg">
<rect x="2" y="2" width="20" height="20" rx="2" fill="#212121"/>
<path fill-rule="evenodd" clip-rule="evenodd" d="M9.49287 16.9973C9.46482 16.9636 9.44012 16.9272 9.41914 16.8888C8.68058 15.097 7.94328 13.3029 7.20721 11.5068C6.7866 10.4817 6.36506 9.45695 5.94259 8.4325C5.93173 8.4105 5.91957 8.38914 5.90619 8.36855V8.25919C6.02658 8.15724 6.09938 8.17485 6.16005 8.32314L9.28381 15.9231L9.54327 16.5542C9.56847 16.494 9.58713 16.4514 9.60393 16.4078C10.3462 14.5016 11.0876 12.5955 11.828 10.6893C11.828 10.6791 11.8364 10.6698 11.8401 10.6606C11.8489 10.6281 11.8713 10.6008 11.9015 10.5856C11.9318 10.5704 11.9672 10.5687 11.9988 10.5809C12.0305 10.5916 12.056 10.6153 12.0687 10.6461C12.0814 10.6768 12.08 10.7115 12.065 10.7412C11.9894 10.9405 11.912 11.1397 11.8345 11.339C11.1171 13.1828 10.3994 15.0259 9.68139 16.8684C9.65995 16.9123 9.63465 16.9541 9.6058 16.9935L9.49287 16.9973Z" stroke="url(#paint0_linear)" stroke-width="0.380863"/>
<path fill-rule="evenodd" clip-rule="evenodd" d="M14.2228 16.9972C14.1915 16.9605 14.1642 16.9204 14.1416 16.8777C13.5051 15.1804 12.8702 13.4812 12.2368 11.7802C12.2253 11.754 12.2168 11.7267 12.2116 11.6986C12.2043 11.6714 12.2086 11.6424 12.2234 11.6185C12.2382 11.5945 12.2623 11.5775 12.29 11.5716C12.3449 11.5498 12.4074 11.5742 12.4328 11.6272C12.451 11.6647 12.4666 11.7034 12.4794 11.7431L14.2378 16.4513C14.249 16.4801 14.2611 16.5079 14.2779 16.5496L14.5934 15.822C15.676 13.3178 16.7589 10.8135 17.8422 8.30923C17.8469 8.29718 17.8525 8.28513 17.8581 8.27309C17.8685 8.24121 17.8918 8.21507 17.9224 8.20085C17.953 8.18663 17.9881 8.1856 18.0195 8.19801C18.0506 8.21023 18.0749 8.235 18.0865 8.26613C18.0981 8.29725 18.0958 8.3318 18.0802 8.36113C18.0018 8.5465 17.9197 8.73186 17.8394 8.92186C16.6927 11.5738 15.546 14.2261 14.3992 16.8786C14.3761 16.9213 14.3493 16.962 14.319 17L14.2228 16.9972Z" stroke="url(#paint1_linear)" stroke-width="0.380863"/>
<path fill-rule="evenodd" clip-rule="evenodd" d="M14.3339 13.1027C14.4272 12.8766 14.5206 12.668 14.6083 12.4595C15.3008 10.8332 15.9939 9.20603 16.6877 7.57792C16.7241 7.49358 16.7857 7.45929 16.8548 7.48524C16.9238 7.51119 16.9481 7.57792 16.9042 7.6845L14.9583 12.2547C14.7909 12.6458 14.6245 13.0369 14.459 13.428C14.4328 13.4873 14.4076 13.5457 14.3274 13.5457C14.2471 13.5457 14.2173 13.4845 14.1939 13.4215C13.4691 11.4814 12.7448 9.54123 12.0212 7.60109C12.0119 7.57699 12.0016 7.55382 11.9857 7.51397C11.9344 7.64094 11.8924 7.75216 11.8457 7.86338C11.1209 9.72073 10.3954 11.5778 9.66927 13.4345C9.65169 13.4789 9.61854 13.5154 9.57594 13.5374C9.53628 13.548 9.4939 13.5375 9.46395 13.5096C9.43896 13.466 9.43226 13.4144 9.44528 13.3659C9.51155 13.1805 9.58714 12.9952 9.66087 12.8043C10.3938 10.9278 11.1268 9.05125 11.8597 7.17475C11.8803 7.12285 11.898 7.07002 11.9633 7.05797C12.0287 7.04592 12.0837 7.07465 12.1164 7.1627C12.2614 7.54826 12.4054 7.93382 12.5485 8.31937L14.3069 13.0276C14.3097 13.0471 14.3181 13.0656 14.3339 13.1027Z" stroke="url(#paint2_linear)" stroke-width="0.380863"/>
<path fill-rule="evenodd" clip-rule="evenodd" d="M8.96369 11.6745C8.95623 11.7422 8.92916 11.7839 8.87036 11.7959C8.81411 11.8122 8.7547 11.7827 8.7341 11.7283C8.6977 11.6467 8.66597 11.5642 8.6333 11.4817L7.10642 7.6725C7.06629 7.5724 7.09616 7.49455 7.18202 7.48065C7.24749 7.46792 7.31137 7.50885 7.32668 7.57333C7.54321 8.11521 7.76098 8.65709 7.97999 9.19897C8.29918 9.99419 8.61806 10.79 8.93663 11.5865C8.94129 11.6198 8.95529 11.6513 8.96369 11.6745Z" stroke="url(#paint3_linear)" stroke-width="0.380863"/>
<defs>
<linearGradient id="paint0_linear" x1="5.76619" y1="12.5958" x2="12.2162" y2="12.5958" gradientUnits="userSpaceOnUse">
<stop stop-color="#D5AC4F"/>
<stop offset="0.02" stop-color="#D7B053"/>
<stop offset="0.05" stop-color="#DEBC61"/>
<stop offset="0.07" stop-color="#EAD077"/>
<stop offset="0.1" stop-color="#FAEC95"/>
<stop offset="0.11" stop-color="#FCF19A"/>
<stop offset="0.13" stop-color="#ECD77D"/>
<stop offset="0.15" stop-color="#E0C469"/>
<stop offset="0.17" stop-color="#D8B95C"/>
<stop offset="0.19" stop-color="#D6B558"/>
<stop offset="0.29" stop-color="#D3AB50"/>
<stop offset="0.34" stop-color="#E4BF64"/>
<stop offset="0.38" stop-color="#F3D075"/>
<stop offset="0.51" stop-color="#FFF49F"/>
<stop offset="0.56" stop-color="#EDD57E"/>
<stop offset="0.6" stop-color="#DFBE64"/>
<stop offset="0.64" stop-color="#D7B054"/>
<stop offset="0.67" stop-color="#D4AB4F"/>
<stop offset="0.77" stop-color="#F3D076"/>
<stop offset="0.8" stop-color="#F5D67D"/>
<stop offset="0.84" stop-color="#FAE891"/>
<stop offset="0.87" stop-color="#FFF6A2"/>
<stop offset="0.9" stop-color="#EDD98A"/>
<stop offset="0.94" stop-color="#DEC075"/>
<stop offset="0.97" stop-color="#D4B068"/>
<stop offset="1" stop-color="#D1AB63"/>
</linearGradient>
<linearGradient id="paint1_linear" x1="12.0697" y1="12.5948" x2="18.2323" y2="12.5948" gradientUnits="userSpaceOnUse">
<stop stop-color="#D5AC4F"/>
<stop offset="0.02" stop-color="#D7B053"/>
<stop offset="0.05" stop-color="#DEBC61"/>
<stop offset="0.07" stop-color="#EAD077"/>
<stop offset="0.1" stop-color="#FAEC95"/>
<stop offset="0.11" stop-color="#FCF19A"/>
<stop offset="0.13" stop-color="#ECD77D"/>
<stop offset="0.15" stop-color="#E0C469"/>
<stop offset="0.17" stop-color="#D8B95C"/>
<stop offset="0.19" stop-color="#D6B558"/>
<stop offset="0.29" stop-color="#D3AB50"/>
<stop offset="0.34" stop-color="#E4BF64"/>
<stop offset="0.38" stop-color="#F3D075"/>
<stop offset="0.51" stop-color="#FFF49F"/>
<stop offset="0.56" stop-color="#EDD57E"/>
<stop offset="0.6" stop-color="#DFBE64"/>
<stop offset="0.64" stop-color="#D7B054"/>
<stop offset="0.67" stop-color="#D4AB4F"/>
<stop offset="0.77" stop-color="#F3D076"/>
<stop offset="0.8" stop-color="#F5D67D"/>
<stop offset="0.84" stop-color="#FAE891"/>
<stop offset="0.87" stop-color="#FFF6A2"/>
<stop offset="0.9" stop-color="#EDD98A"/>
<stop offset="0.94" stop-color="#DEC075"/>
<stop offset="0.97" stop-color="#D4B068"/>
<stop offset="1" stop-color="#D1AB63"/>
</linearGradient>
<linearGradient id="paint2_linear" x1="9.29502" y1="10.3" x2="17.0666" y2="10.3" gradientUnits="userSpaceOnUse">
<stop stop-color="#D5AC4F"/>
<stop offset="0.02" stop-color="#D7B053"/>
<stop offset="0.05" stop-color="#DEBC61"/>
<stop offset="0.07" stop-color="#EAD077"/>
<stop offset="0.1" stop-color="#FAEC95"/>
<stop offset="0.11" stop-color="#FCF19A"/>
<stop offset="0.13" stop-color="#ECD77D"/>
<stop offset="0.15" stop-color="#E0C469"/>
<stop offset="0.17" stop-color="#D8B95C"/>
<stop offset="0.19" stop-color="#D6B558"/>
<stop offset="0.29" stop-color="#D3AB50"/>
<stop offset="0.34" stop-color="#E4BF64"/>
<stop offset="0.38" stop-color="#F3D075"/>
<stop offset="0.51" stop-color="#FFF49F"/>
<stop offset="0.56" stop-color="#EDD57E"/>
<stop offset="0.6" stop-color="#DFBE64"/>
<stop offset="0.64" stop-color="#D7B054"/>
<stop offset="0.67" stop-color="#D4AB4F"/>
<stop offset="0.77" stop-color="#F3D076"/>
<stop offset="0.8" stop-color="#F5D67D"/>
<stop offset="0.84" stop-color="#FAE891"/>
<stop offset="0.87" stop-color="#FFF6A2"/>
<stop offset="0.9" stop-color="#EDD98A"/>
<stop offset="0.94" stop-color="#DEC075"/>
<stop offset="0.97" stop-color="#D4B068"/>
<stop offset="1" stop-color="#D1AB63"/>
</linearGradient>
<linearGradient id="paint3_linear" x1="6.9459" y1="9.63921" x2="9.10556" y2="9.63921" gradientUnits="userSpaceOnUse">
<stop stop-color="#D5AC4F"/>
<stop offset="0.02" stop-color="#D7B053"/>
<stop offset="0.05" stop-color="#DEBC61"/>
<stop offset="0.07" stop-color="#EAD077"/>
<stop offset="0.1" stop-color="#FAEC95"/>
<stop offset="0.11" stop-color="#FCF19A"/>
<stop offset="0.13" stop-color="#ECD77D"/>
<stop offset="0.15" stop-color="#E0C469"/>
<stop offset="0.17" stop-color="#D8B95C"/>
<stop offset="0.19" stop-color="#D6B558"/>
<stop offset="0.29" stop-color="#D3AB50"/>
<stop offset="0.34" stop-color="#E4BF64"/>
<stop offset="0.38" stop-color="#F3D075"/>
<stop offset="0.51" stop-color="#FFF49F"/>
<stop offset="0.56" stop-color="#EDD57E"/>
<stop offset="0.6" stop-color="#DFBE64"/>
<stop offset="0.64" stop-color="#D7B054"/>
<stop offset="0.67" stop-color="#D4AB4F"/>
<stop offset="0.77" stop-color="#F3D076"/>
<stop offset="0.8" stop-color="#F5D67D"/>
<stop offset="0.84" stop-color="#FAE891"/>
<stop offset="0.87" stop-color="#FFF6A2"/>
<stop offset="0.9" stop-color="#EDD98A"/>
<stop offset="0.94" stop-color="#DEC075"/>
<stop offset="0.97" stop-color="#D4B068"/>
<stop offset="1" stop-color="#D1AB63"/>
</linearGradient>
</defs>
</svg>
